<svg width="313" height="224" viewBox="0 0 313 224" fill="none" xmlns="http://www.w3.org/2000/svg">
<path d="M305 0C309.418 0 313 3.58172 313 8V216C313 220.418 309.418 224 305 224H8C3.58173 224 0 220.418 0 216V8C0 3.58172 3.58172 0 8 0H305Z" fill="#F3F4F6"/>
<path d="M305 0C309.418 0 313 3.58172 313 8V216C313 220.418 309.418 224 305 224H8C3.58173 224 0 220.418 0 216V8C0 3.58172 3.58172 0 8 0H305Z" stroke="#E5E7EB"/>
<path d="M291 16C294.314 16 297 18.6863 297 22V202C297 205.314 294.314 208 291 208H22C18.6863 208 16 205.314 16 202V22C16 18.6863 18.6863 16 22 16H291Z" fill="white"/>
<path d="M291 16C294.314 16 297 18.6863 297 22V202C297 205.314 294.314 208 291 208H22C18.6863 208 16 205.314 16 202V22C16 18.6863 18.6863 16 22 16H291Z" stroke="#E5E7EB"/>
<path d="M156.5 48C174.173 48 188.5 62.3269 188.5 80C188.5 97.6731 174.173 112 156.5 112C138.827 112 124.5 97.6731 124.5 80C124.5 62.3269 138.827 48 156.5 48Z" fill="#FFD3FE"/>
<path d="M156.5 48C174.173 48 188.5 62.3269 188.5 80C188.5 97.6731 174.173 112 156.5 112C138.827 112 124.5 97.6731 124.5 80C124.5 62.3269 138.827 48 156.5 48Z" stroke="#E5E7EB"/>
<g clip-path="url(#clip0_7_1663)">
<path d="M166.559 71.9404C167.145 72.5264 167.145 73.4779 166.559 74.0639L154.559 86.0639C153.973 86.6498 153.022 86.6498 152.436 86.0639L146.436 80.0639C145.85 79.4779 145.85 78.5264 146.436 77.9404C147.022 77.3545 147.973 77.3545 148.559 77.9404L153.5 82.8764L164.441 71.9404C165.027 71.3545 165.978 71.3545 166.564 71.9404H166.559Z" fill="#8F008C"/>
</g>
<path d="M79.5185 129.484V141.12H77.7628V129.484H79.5185ZM83.6378 135.938V141.12H81.9389V132.393H83.5696V133.813H83.6776C83.8783 133.351 84.1927 132.98 84.6207 132.7C85.0526 132.419 85.5961 132.279 86.2514 132.279C86.8461 132.279 87.367 132.404 87.8139 132.654C88.2609 132.9 88.6075 133.268 88.8537 133.756C89.0999 134.245 89.223 134.849 89.223 135.569V141.12H87.5241V135.774C87.5241 135.141 87.3594 134.647 87.0298 134.291C86.7003 133.931 86.2476 133.751 85.6719 133.751C85.2779 133.751 84.9276 133.836 84.6207 134.006C84.3177 134.177 84.0772 134.427 83.8991 134.756C83.7249 135.082 83.6378 135.476 83.6378 135.938ZM95.5753 132.393V133.756H90.8082V132.393H95.5753ZM92.0866 130.302H93.7855V138.558C93.7855 138.887 93.8348 139.135 93.9332 139.302C94.0317 139.465 94.1586 139.577 94.3139 139.637C94.473 139.694 94.6454 139.722 94.831 139.722C94.9673 139.722 95.0866 139.713 95.1889 139.694C95.2912 139.675 95.3707 139.66 95.4276 139.649L95.7344 141.052C95.6359 141.09 95.4957 141.128 95.3139 141.166C95.1321 141.207 94.9048 141.23 94.6321 141.234C94.1851 141.241 93.7685 141.162 93.3821 140.995C92.9957 140.828 92.6832 140.571 92.4446 140.222C92.206 139.874 92.0866 139.436 92.0866 138.91V130.302ZM101.122 141.296C100.262 141.296 99.5218 141.113 98.9006 140.745C98.2831 140.374 97.8059 139.853 97.4688 139.183C97.1354 138.508 96.9688 137.719 96.9688 136.813C96.9688 135.919 97.1354 135.131 97.4688 134.45C97.8059 133.768 98.2756 133.236 98.8778 132.853C99.4839 132.47 100.192 132.279 101.003 132.279C101.495 132.279 101.973 132.361 102.435 132.524C102.897 132.686 103.312 132.942 103.679 133.291C104.046 133.639 104.336 134.092 104.548 134.649C104.76 135.202 104.866 135.874 104.866 136.666V137.268H97.929V135.995H103.202C103.202 135.548 103.111 135.152 102.929 134.808C102.747 134.459 102.491 134.185 102.162 133.984C101.836 133.783 101.454 133.683 101.014 133.683C100.537 133.683 100.12 133.8 99.7642 134.035C99.4119 134.266 99.1392 134.569 98.946 134.944C98.7566 135.315 98.6619 135.719 98.6619 136.154V137.149C98.6619 137.732 98.7642 138.228 98.9688 138.637C99.1771 139.046 99.4669 139.359 99.8381 139.575C100.209 139.787 100.643 139.893 101.139 139.893C101.461 139.893 101.755 139.847 102.02 139.756C102.285 139.662 102.514 139.522 102.707 139.336C102.901 139.15 103.048 138.921 103.151 138.649L104.759 138.938C104.63 139.412 104.399 139.827 104.065 140.183C103.736 140.535 103.321 140.81 102.821 141.006C102.325 141.2 101.759 141.296 101.122 141.296ZM110.411 144.575C109.717 144.575 109.121 144.484 108.621 144.302C108.125 144.12 107.719 143.88 107.405 143.58C107.09 143.281 106.856 142.953 106.7 142.597L108.161 141.995C108.263 142.162 108.399 142.338 108.57 142.524C108.744 142.713 108.979 142.874 109.274 143.006C109.573 143.139 109.958 143.205 110.428 143.205C111.071 143.205 111.604 143.048 112.024 142.734C112.445 142.423 112.655 141.927 112.655 141.245V139.529H112.547C112.445 139.715 112.297 139.921 112.104 140.149C111.914 140.376 111.653 140.573 111.32 140.739C110.986 140.906 110.553 140.989 110.018 140.989C109.329 140.989 108.708 140.828 108.155 140.506C107.606 140.181 107.17 139.702 106.848 139.069C106.53 138.433 106.371 137.65 106.371 136.722C106.371 135.794 106.528 134.999 106.842 134.336C107.161 133.673 107.596 133.166 108.149 132.813C108.702 132.457 109.329 132.279 110.03 132.279C110.571 132.279 111.009 132.37 111.342 132.552C111.676 132.73 111.935 132.938 112.121 133.177C112.31 133.416 112.456 133.626 112.558 133.808H112.683V132.393H114.348V141.313C114.348 142.063 114.174 142.679 113.825 143.16C113.477 143.641 113.005 143.997 112.411 144.228C111.82 144.459 111.153 144.575 110.411 144.575ZM110.393 139.58C110.882 139.58 111.295 139.467 111.632 139.239C111.973 139.008 112.231 138.679 112.405 138.251C112.583 137.819 112.672 137.302 112.672 136.7C112.672 136.113 112.585 135.595 112.411 135.149C112.236 134.702 111.981 134.353 111.643 134.103C111.306 133.849 110.89 133.722 110.393 133.722C109.882 133.722 109.456 133.855 109.115 134.12C108.774 134.381 108.517 134.738 108.342 135.188C108.172 135.639 108.087 136.143 108.087 136.7C108.087 137.272 108.174 137.774 108.348 138.205C108.522 138.637 108.78 138.974 109.121 139.217C109.465 139.459 109.89 139.58 110.393 139.58ZM116.626 141.12V132.393H118.268V133.779H118.359C118.518 133.31 118.799 132.94 119.2 132.671C119.606 132.399 120.064 132.262 120.575 132.262C120.681 132.262 120.806 132.266 120.95 132.274C121.098 132.281 121.214 132.291 121.297 132.302V133.927C121.229 133.908 121.107 133.887 120.933 133.864C120.759 133.838 120.585 133.825 120.411 133.825C120.009 133.825 119.651 133.91 119.337 134.08C119.026 134.247 118.78 134.48 118.598 134.779C118.416 135.075 118.325 135.412 118.325 135.791V141.12H116.626ZM125.229 141.313C124.676 141.313 124.176 141.211 123.729 141.006C123.282 140.798 122.928 140.497 122.666 140.103C122.409 139.709 122.28 139.226 122.28 138.654C122.28 138.162 122.375 137.756 122.564 137.438C122.753 137.12 123.009 136.868 123.331 136.683C123.653 136.497 124.013 136.357 124.411 136.262C124.808 136.167 125.214 136.095 125.626 136.046C126.149 135.986 126.573 135.936 126.899 135.899C127.225 135.857 127.462 135.791 127.609 135.7C127.757 135.609 127.831 135.461 127.831 135.256V135.217C127.831 134.72 127.691 134.336 127.411 134.063C127.134 133.791 126.721 133.654 126.172 133.654C125.6 133.654 125.149 133.781 124.82 134.035C124.494 134.285 124.268 134.563 124.143 134.87L122.547 134.506C122.736 133.976 123.013 133.548 123.376 133.222C123.744 132.893 124.166 132.654 124.643 132.506C125.121 132.355 125.623 132.279 126.149 132.279C126.498 132.279 126.867 132.321 127.257 132.404C127.651 132.484 128.018 132.631 128.359 132.847C128.704 133.063 128.986 133.372 129.206 133.774C129.426 134.171 129.536 134.688 129.536 135.325V141.12H127.876V139.927H127.808C127.698 140.147 127.534 140.363 127.314 140.575C127.094 140.787 126.812 140.963 126.467 141.103C126.123 141.243 125.71 141.313 125.229 141.313ZM125.598 139.95C126.068 139.95 126.469 139.857 126.803 139.671C127.14 139.486 127.395 139.243 127.57 138.944C127.748 138.641 127.837 138.317 127.837 137.972V136.847C127.776 136.908 127.659 136.965 127.484 137.018C127.314 137.067 127.119 137.111 126.899 137.149C126.679 137.183 126.465 137.215 126.257 137.245C126.049 137.272 125.875 137.294 125.734 137.313C125.405 137.355 125.104 137.425 124.831 137.524C124.562 137.622 124.346 137.764 124.183 137.95C124.024 138.131 123.945 138.374 123.945 138.677C123.945 139.097 124.1 139.416 124.411 139.631C124.721 139.844 125.117 139.95 125.598 139.95ZM135.872 132.393V133.756H131.105V132.393H135.872ZM132.384 130.302H134.082V138.558C134.082 138.887 134.132 139.135 134.23 139.302C134.329 139.465 134.455 139.577 134.611 139.637C134.77 139.694 134.942 139.722 135.128 139.722C135.264 139.722 135.384 139.713 135.486 139.694C135.588 139.675 135.668 139.66 135.724 139.649L136.031 141.052C135.933 141.09 135.793 141.128 135.611 141.166C135.429 141.207 135.202 141.23 134.929 141.234C134.482 141.241 134.065 141.162 133.679 140.995C133.293 140.828 132.98 140.571 132.741 140.222C132.503 139.874 132.384 139.436 132.384 138.91V130.302ZM137.751 141.12V132.393H139.45V141.12H137.751ZM138.609 131.046C138.314 131.046 138.06 130.948 137.848 130.751C137.64 130.55 137.536 130.311 137.536 130.035C137.536 129.755 137.64 129.516 137.848 129.319C138.06 129.118 138.314 129.018 138.609 129.018C138.905 129.018 139.157 129.118 139.365 129.319C139.577 129.516 139.683 129.755 139.683 130.035C139.683 130.311 139.577 130.55 139.365 130.751C139.157 130.948 138.905 131.046 138.609 131.046ZM145.412 141.296C144.594 141.296 143.88 141.109 143.27 140.734C142.66 140.359 142.187 139.834 141.849 139.16C141.512 138.486 141.344 137.698 141.344 136.796C141.344 135.891 141.512 135.099 141.849 134.421C142.187 133.743 142.66 133.217 143.27 132.842C143.88 132.467 144.594 132.279 145.412 132.279C146.23 132.279 146.944 132.467 147.554 132.842C148.164 133.217 148.637 133.743 148.974 134.421C149.312 135.099 149.48 135.891 149.48 136.796C149.48 137.698 149.312 138.486 148.974 139.16C148.637 139.834 148.164 140.359 147.554 140.734C146.944 141.109 146.23 141.296 145.412 141.296ZM145.418 139.87C145.948 139.87 146.387 139.73 146.736 139.45C147.084 139.169 147.342 138.796 147.509 138.33C147.679 137.864 147.764 137.351 147.764 136.791C147.764 136.234 147.679 135.722 147.509 135.256C147.342 134.787 147.084 134.41 146.736 134.126C146.387 133.842 145.948 133.7 145.418 133.7C144.884 133.7 144.44 133.842 144.088 134.126C143.74 134.41 143.48 134.787 143.31 135.256C143.143 135.722 143.06 136.234 143.06 136.791C143.06 137.351 143.143 137.864 143.31 138.33C143.48 138.796 143.74 139.169 144.088 139.45C144.44 139.73 144.884 139.87 145.418 139.87ZM153.075 135.938V141.12H151.376V132.393H153.007V133.813H153.115C153.316 133.351 153.63 132.98 154.058 132.7C154.49 132.419 155.034 132.279 155.689 132.279C156.284 132.279 156.804 132.404 157.251 132.654C157.698 132.9 158.045 133.268 158.291 133.756C158.537 134.245 158.661 134.849 158.661 135.569V141.12H156.962V135.774C156.962 135.141 156.797 134.647 156.467 134.291C156.138 133.931 155.685 133.751 155.109 133.751C154.715 133.751 154.365 133.836 154.058 134.006C153.755 134.177 153.515 134.427 153.337 134.756C153.162 135.082 153.075 135.476 153.075 135.938ZM174.974 133.268H173.202C173.134 132.889 173.007 132.556 172.821 132.268C172.635 131.98 172.408 131.736 172.139 131.535C171.87 131.334 171.569 131.183 171.236 131.08C170.906 130.978 170.556 130.927 170.185 130.927C169.514 130.927 168.914 131.095 168.384 131.433C167.857 131.77 167.44 132.264 167.134 132.916C166.83 133.567 166.679 134.363 166.679 135.302C166.679 136.249 166.83 137.048 167.134 137.7C167.44 138.351 167.859 138.844 168.389 139.177C168.92 139.51 169.516 139.677 170.179 139.677C170.546 139.677 170.895 139.628 171.224 139.529C171.558 139.427 171.859 139.277 172.128 139.08C172.397 138.883 172.624 138.643 172.81 138.359C172.999 138.071 173.13 137.741 173.202 137.37L174.974 137.376C174.88 137.948 174.696 138.474 174.423 138.955C174.154 139.433 173.808 139.845 173.384 140.194C172.963 140.539 172.482 140.806 171.94 140.995C171.399 141.185 170.808 141.279 170.168 141.279C169.16 141.279 168.262 141.041 167.474 140.563C166.687 140.082 166.065 139.395 165.611 138.501C165.16 137.607 164.935 136.541 164.935 135.302C164.935 134.06 165.162 132.993 165.616 132.103C166.071 131.209 166.692 130.524 167.48 130.046C168.268 129.565 169.164 129.325 170.168 129.325C170.785 129.325 171.361 129.414 171.895 129.592C172.433 129.766 172.916 130.024 173.344 130.364C173.772 130.702 174.126 131.114 174.406 131.603C174.687 132.088 174.876 132.643 174.974 133.268ZM180.615 141.296C179.797 141.296 179.083 141.109 178.473 140.734C177.863 140.359 177.39 139.834 177.053 139.16C176.715 138.486 176.547 137.698 176.547 136.796C176.547 135.891 176.715 135.099 177.053 134.421C177.39 133.743 177.863 133.217 178.473 132.842C179.083 132.467 179.797 132.279 180.615 132.279C181.433 132.279 182.147 132.467 182.757 132.842C183.367 133.217 183.84 133.743 184.178 134.421C184.515 135.099 184.683 135.891 184.683 136.796C184.683 137.698 184.515 138.486 184.178 139.16C183.84 139.834 183.367 140.359 182.757 140.734C182.147 141.109 181.433 141.296 180.615 141.296ZM180.621 139.87C181.151 139.87 181.59 139.73 181.939 139.45C182.287 139.169 182.545 138.796 182.712 138.33C182.882 137.864 182.967 137.351 182.967 136.791C182.967 136.234 182.882 135.722 182.712 135.256C182.545 134.787 182.287 134.41 181.939 134.126C181.59 133.842 181.151 133.7 180.621 133.7C180.087 133.7 179.643 133.842 179.291 134.126C178.943 134.41 178.683 134.787 178.513 135.256C178.346 135.722 178.263 136.234 178.263 136.791C178.263 137.351 178.346 137.864 178.513 138.33C178.683 138.796 178.943 139.169 179.291 139.45C179.643 139.73 180.087 139.87 180.621 139.87ZM186.58 141.12V132.393H188.21V133.813H188.318C188.5 133.332 188.797 132.957 189.21 132.688C189.623 132.416 190.117 132.279 190.693 132.279C191.277 132.279 191.765 132.416 192.159 132.688C192.557 132.961 192.85 133.336 193.04 133.813H193.131C193.339 133.347 193.67 132.976 194.125 132.7C194.58 132.419 195.121 132.279 195.75 132.279C196.542 132.279 197.188 132.527 197.688 133.024C198.191 133.52 198.443 134.268 198.443 135.268V141.12H196.744V135.427C196.744 134.836 196.583 134.408 196.261 134.143C195.939 133.878 195.555 133.745 195.108 133.745C194.555 133.745 194.125 133.916 193.818 134.256C193.511 134.594 193.358 135.027 193.358 135.558V141.12H191.665V135.319C191.665 134.845 191.517 134.465 191.222 134.177C190.926 133.889 190.542 133.745 190.068 133.745C189.746 133.745 189.449 133.83 189.176 134.001C188.907 134.167 188.689 134.4 188.523 134.7C188.36 134.999 188.278 135.345 188.278 135.739V141.12H186.58ZM200.72 144.393V132.393H202.379V133.808H202.521C202.62 133.626 202.762 133.416 202.947 133.177C203.133 132.938 203.391 132.73 203.72 132.552C204.05 132.37 204.485 132.279 205.027 132.279C205.732 132.279 206.36 132.457 206.913 132.813C207.466 133.169 207.9 133.683 208.214 134.353C208.533 135.024 208.692 135.83 208.692 136.774C208.692 137.717 208.535 138.525 208.22 139.2C207.906 139.87 207.474 140.387 206.925 140.751C206.375 141.111 205.749 141.291 205.044 141.291C204.514 141.291 204.08 141.202 203.743 141.024C203.41 140.845 203.148 140.637 202.959 140.399C202.769 140.16 202.624 139.948 202.521 139.762H202.419V144.393H200.72ZM202.385 136.756C202.385 137.37 202.474 137.908 202.652 138.37C202.83 138.832 203.088 139.194 203.425 139.455C203.762 139.713 204.175 139.842 204.663 139.842C205.171 139.842 205.595 139.707 205.936 139.438C206.277 139.166 206.535 138.796 206.709 138.33C206.887 137.864 206.976 137.34 206.976 136.756C206.976 136.181 206.889 135.664 206.714 135.205C206.544 134.747 206.286 134.385 205.942 134.12C205.601 133.855 205.175 133.722 204.663 133.722C204.171 133.722 203.754 133.849 203.413 134.103C203.076 134.357 202.821 134.711 202.646 135.166C202.472 135.62 202.385 136.15 202.385 136.756ZM212.294 129.484V141.12H210.595V129.484H212.294ZM218.341 141.296C217.481 141.296 216.741 141.113 216.119 140.745C215.502 140.374 215.025 139.853 214.688 139.183C214.354 138.508 214.188 137.719 214.188 136.813C214.188 135.919 214.354 135.131 214.688 134.45C215.025 133.768 215.494 133.236 216.097 132.853C216.703 132.47 217.411 132.279 218.222 132.279C218.714 132.279 219.191 132.361 219.653 132.524C220.116 132.686 220.53 132.942 220.898 133.291C221.265 133.639 221.555 134.092 221.767 134.649C221.979 135.202 222.085 135.874 222.085 136.666V137.268H215.148V135.995H220.42C220.42 135.548 220.33 135.152 220.148 134.808C219.966 134.459 219.71 134.185 219.381 133.984C219.055 133.783 218.672 133.683 218.233 133.683C217.756 133.683 217.339 133.8 216.983 134.035C216.631 134.266 216.358 134.569 216.165 134.944C215.975 135.315 215.881 135.719 215.881 136.154V137.149C215.881 137.732 215.983 138.228 216.188 138.637C216.396 139.046 216.686 139.359 217.057 139.575C217.428 139.787 217.862 139.893 218.358 139.893C218.68 139.893 218.973 139.847 219.239 139.756C219.504 139.662 219.733 139.522 219.926 139.336C220.119 139.15 220.267 138.921 220.369 138.649L221.977 138.938C221.848 139.412 221.617 139.827 221.284 140.183C220.955 140.535 220.54 140.81 220.04 141.006C219.544 141.2 218.977 141.296 218.341 141.296ZM228.044 132.393V133.756H223.277V132.393H228.044ZM224.555 130.302H226.254V138.558C226.254 138.887 226.304 139.135 226.402 139.302C226.5 139.465 226.627 139.577 226.783 139.637C226.942 139.694 227.114 139.722 227.3 139.722C227.436 139.722 227.555 139.713 227.658 139.694C227.76 139.675 227.839 139.66 227.896 139.649L228.203 141.052C228.105 141.09 227.964 141.128 227.783 141.166C227.601 141.207 227.374 141.23 227.101 141.234C226.654 141.241 226.237 141.162 225.851 140.995C225.464 140.828 225.152 140.571 224.913 140.222C224.675 139.874 224.555 139.436 224.555 138.91V130.302ZM233.591 141.296C232.731 141.296 231.991 141.113 231.369 140.745C230.752 140.374 230.275 139.853 229.938 139.183C229.604 138.508 229.438 137.719 229.438 136.813C229.438 135.919 229.604 135.131 229.938 134.45C230.275 133.768 230.744 133.236 231.347 132.853C231.953 132.47 232.661 132.279 233.472 132.279C233.964 132.279 234.441 132.361 234.903 132.524C235.366 132.686 235.78 132.942 236.148 133.291C236.515 133.639 236.805 134.092 237.017 134.649C237.229 135.202 237.335 135.874 237.335 136.666V137.268H230.398V135.995H235.67C235.67 135.548 235.58 135.152 235.398 134.808C235.216 134.459 234.96 134.185 234.631 133.984C234.305 133.783 233.922 133.683 233.483 133.683C233.006 133.683 232.589 133.8 232.233 134.035C231.881 134.266 231.608 134.569 231.415 134.944C231.225 135.315 231.131 135.719 231.131 136.154V137.149C231.131 137.732 231.233 138.228 231.438 138.637C231.646 139.046 231.936 139.359 232.307 139.575C232.678 139.787 233.112 139.893 233.608 139.893C233.93 139.893 234.223 139.847 234.489 139.756C234.754 139.662 234.983 139.522 235.176 139.336C235.369 139.15 235.517 138.921 235.619 138.649L237.227 138.938C237.098 139.412 236.867 139.827 236.534 140.183C236.205 140.535 235.79 140.81 235.29 141.006C234.794 141.2 234.227 141.296 233.591 141.296Z" fill="#0A0A0A"/>
<path d="M41.565 159.618H42.9769L45.8008 164.371H45.9201L48.744 159.618H50.1559L46.4769 165.604V169.8H45.244V165.604L41.565 159.618ZM53.6136 169.959C52.9242 169.959 52.3194 169.795 51.799 169.467C51.282 169.139 50.8776 168.68 50.5859 168.09C50.2976 167.5 50.1534 166.81 50.1534 166.021C50.1534 165.226 50.2976 164.532 50.5859 163.938C50.8776 163.345 51.282 162.884 51.799 162.556C52.3194 162.228 52.9242 162.064 53.6136 162.064C54.303 162.064 54.9063 162.228 55.4233 162.556C55.9437 162.884 56.348 163.345 56.6364 163.938C56.928 164.532 57.0739 165.226 57.0739 166.021C57.0739 166.81 56.928 167.5 56.6364 168.09C56.348 168.68 55.9437 169.139 55.4233 169.467C54.9063 169.795 54.303 169.959 53.6136 169.959ZM53.6136 168.905C54.1373 168.905 54.5682 168.771 54.9062 168.502C55.2443 168.234 55.4946 167.881 55.657 167.443C55.8194 167.006 55.9006 166.532 55.9006 166.021C55.9006 165.511 55.8194 165.035 55.657 164.595C55.4946 164.154 55.2443 163.797 54.9062 163.526C54.5682 163.254 54.1373 163.118 53.6136 163.118C53.09 163.118 52.6591 163.254 52.321 163.526C51.983 163.797 51.7327 164.154 51.5703 164.595C51.4079 165.035 51.3267 165.511 51.3267 166.021C51.3267 166.532 51.4079 167.006 51.5703 167.443C51.7327 167.881 51.983 168.234 52.321 168.502C52.6591 168.771 53.09 168.905 53.6136 168.905ZM63.6774 166.678V162.163H64.8507V169.8H63.6774V168.507H63.5978C63.4189 168.895 63.1404 169.225 62.7626 169.497C62.3848 169.765 61.9075 169.899 61.3308 169.899C60.8535 169.899 60.4293 169.795 60.0581 169.586C59.6868 169.374 59.3952 169.056 59.1831 168.631C58.9709 168.204 58.8649 167.665 58.8649 167.016V162.163H60.0382V166.936C60.0382 167.493 60.194 167.937 60.5055 168.269C60.8204 168.6 61.2214 168.766 61.7086 168.766C62.0003 168.766 62.2969 168.691 62.5985 168.542C62.9035 168.393 63.1587 168.164 63.3642 167.856C63.573 167.548 63.6774 167.155 63.6774 166.678ZM66.9996 169.8V162.163H68.1332V163.317H68.2127C68.3519 162.939 68.6038 162.632 68.9684 162.397C69.333 162.162 69.744 162.044 70.2013 162.044C70.2875 162.044 70.3952 162.046 70.5245 162.049C70.6538 162.052 70.7515 162.057 70.8178 162.064V163.257C70.7781 163.247 70.6869 163.232 70.5444 163.212C70.4052 163.189 70.2577 163.178 70.1019 163.178C69.7307 163.178 69.3993 163.256 69.1076 163.411C68.8192 163.564 68.5906 163.776 68.4215 164.048C68.2558 164.316 68.1729 164.623 68.1729 164.967V169.8H66.9996ZM78.1547 169.8L75.3706 159.618H76.6234L78.7512 167.911H78.8507L81.0183 159.618H82.4103L84.5779 167.911H84.6774L86.8052 159.618H88.0581L85.274 169.8H84.0012L81.7541 161.686H81.6745L79.4274 169.8H78.1547ZM90.6085 165.206V169.8H89.4352V159.618H90.6085V163.357H90.7079C90.8869 162.962 91.1554 162.649 91.5133 162.417C91.8746 162.182 92.3552 162.064 92.9551 162.064C93.4754 162.064 93.9312 162.168 94.3223 162.377C94.7134 162.583 95.0166 162.899 95.2321 163.327C95.4508 163.751 95.5602 164.291 95.5602 164.948V169.8H94.3869V165.027C94.3869 164.421 94.2295 163.952 93.9146 163.62C93.603 163.285 93.1705 163.118 92.617 163.118C92.2325 163.118 91.8878 163.199 91.5829 163.362C91.2813 163.524 91.0427 163.761 90.867 164.073C90.6947 164.384 90.6085 164.762 90.6085 165.206ZM99.9538 169.979C99.4699 169.979 99.0308 169.888 98.6364 169.705C98.242 169.52 97.9287 169.253 97.6967 168.905C97.4647 168.554 97.3487 168.129 97.3487 167.632C97.3487 167.195 97.4349 166.84 97.6072 166.568C97.7796 166.293 98.0099 166.078 98.2983 165.922C98.5866 165.766 98.9048 165.65 99.2528 165.574C99.6042 165.494 99.9571 165.431 100.312 165.385C100.776 165.325 101.152 165.281 101.44 165.251C101.732 165.218 101.944 165.163 102.077 165.087C102.213 165.011 102.281 164.878 102.281 164.689V164.649C102.281 164.159 102.146 163.778 101.878 163.506C101.613 163.234 101.21 163.098 100.67 163.098C100.11 163.098 99.6705 163.221 99.3523 163.466C99.0341 163.711 98.8104 163.973 98.6811 164.252L97.5675 163.854C97.7663 163.39 98.0315 163.028 98.3629 162.77C98.6977 162.508 99.0623 162.326 99.4567 162.223C99.8544 162.117 100.246 162.064 100.63 162.064C100.875 162.064 101.157 162.094 101.475 162.153C101.797 162.21 102.107 162.328 102.405 162.506C102.706 162.685 102.957 162.956 103.156 163.317C103.354 163.678 103.454 164.162 103.454 164.769V169.8H102.281V168.766H102.221C102.141 168.931 102.009 169.109 101.823 169.298C101.638 169.487 101.391 169.647 101.082 169.78C100.774 169.912 100.398 169.979 99.9538 169.979ZM100.133 168.925C100.597 168.925 100.988 168.834 101.306 168.651C101.628 168.469 101.87 168.234 102.032 167.945C102.198 167.657 102.281 167.354 102.281 167.036V165.962C102.231 166.021 102.121 166.076 101.952 166.126C101.787 166.172 101.594 166.214 101.376 166.25C101.16 166.283 100.95 166.313 100.744 166.34C100.542 166.363 100.378 166.383 100.252 166.399C99.9472 166.439 99.6622 166.504 99.397 166.593C99.1352 166.679 98.9231 166.81 98.7607 166.986C98.6016 167.158 98.522 167.394 98.522 167.692C98.522 168.1 98.6728 168.408 98.9744 168.617C99.2794 168.822 99.6655 168.925 100.133 168.925ZM108.916 162.163V163.158H104.959V162.163H108.916ZM106.112 160.334H107.286V167.612C107.286 167.944 107.334 168.192 107.43 168.358C107.529 168.52 107.655 168.63 107.808 168.686C107.963 168.739 108.128 168.766 108.3 168.766C108.429 168.766 108.535 168.759 108.618 168.746C108.701 168.729 108.767 168.716 108.817 168.706L109.056 169.76C108.976 169.79 108.865 169.82 108.722 169.85C108.58 169.883 108.399 169.899 108.181 169.899C107.849 169.899 107.524 169.828 107.206 169.685C106.891 169.543 106.629 169.326 106.421 169.034C106.215 168.743 106.112 168.375 106.112 167.93V160.334ZM115.954 163.874L114.9 164.172C114.833 163.996 114.736 163.826 114.606 163.66C114.48 163.491 114.308 163.352 114.089 163.242C113.871 163.133 113.59 163.078 113.249 163.078C112.782 163.078 112.392 163.186 112.081 163.401C111.773 163.613 111.618 163.884 111.618 164.212C111.618 164.503 111.724 164.734 111.937 164.903C112.149 165.072 112.48 165.213 112.931 165.325L114.064 165.604C114.747 165.77 115.256 166.023 115.591 166.364C115.925 166.703 116.093 167.138 116.093 167.672C116.093 168.109 115.967 168.501 115.715 168.845C115.466 169.19 115.118 169.462 114.671 169.661C114.224 169.859 113.703 169.959 113.11 169.959C112.331 169.959 111.686 169.79 111.176 169.452C110.666 169.114 110.342 168.62 110.206 167.97L111.32 167.692C111.426 168.103 111.627 168.411 111.922 168.617C112.22 168.822 112.609 168.925 113.09 168.925C113.637 168.925 114.071 168.809 114.393 168.577C114.717 168.341 114.88 168.06 114.88 167.732C114.88 167.466 114.787 167.244 114.601 167.065C114.416 166.883 114.131 166.747 113.746 166.658L112.474 166.359C111.774 166.194 111.26 165.937 110.932 165.589C110.608 165.238 110.445 164.798 110.445 164.271C110.445 163.841 110.566 163.459 110.808 163.128C111.053 162.796 111.386 162.536 111.807 162.347C112.232 162.158 112.712 162.064 113.249 162.064C114.005 162.064 114.598 162.23 115.029 162.561C115.463 162.893 115.771 163.33 115.954 163.874ZM118.436 169.8H117.143L120.882 159.618H122.154L125.893 169.8H124.6L121.558 161.229H121.478L118.436 169.8ZM118.913 165.823H124.123V166.916H118.913V165.823ZM127.32 172.663V162.163H128.453V163.377H128.593C128.679 163.244 128.798 163.075 128.951 162.869C129.106 162.661 129.328 162.475 129.617 162.313C129.908 162.147 130.303 162.064 130.8 162.064C131.443 162.064 132.01 162.225 132.5 162.546C132.991 162.868 133.374 163.323 133.649 163.913C133.924 164.503 134.061 165.199 134.061 166.002C134.061 166.81 133.924 167.511 133.649 168.104C133.374 168.694 132.993 169.152 132.505 169.477C132.018 169.798 131.456 169.959 130.82 169.959C130.329 169.959 129.937 169.878 129.642 169.715C129.347 169.55 129.12 169.362 128.961 169.153C128.801 168.941 128.679 168.766 128.593 168.627H128.493V172.663H127.32ZM128.473 165.982C128.473 166.558 128.558 167.067 128.727 167.508C128.896 167.945 129.143 168.288 129.468 168.537C129.792 168.782 130.19 168.905 130.661 168.905C131.151 168.905 131.561 168.776 131.889 168.517C132.22 168.255 132.469 167.904 132.635 167.463C132.804 167.019 132.888 166.525 132.888 165.982C132.888 165.445 132.805 164.961 132.64 164.53C132.477 164.096 132.23 163.753 131.899 163.501C131.571 163.246 131.158 163.118 130.661 163.118C130.184 163.118 129.783 163.239 129.458 163.481C129.133 163.72 128.888 164.054 128.722 164.485C128.556 164.913 128.473 165.412 128.473 165.982ZM135.851 172.663V162.163H136.985V163.377H137.124C137.21 163.244 137.329 163.075 137.482 162.869C137.638 162.661 137.86 162.475 138.148 162.313C138.44 162.147 138.834 162.064 139.331 162.064C139.974 162.064 140.541 162.225 141.032 162.546C141.522 162.868 141.905 163.323 142.18 163.913C142.455 164.503 142.593 165.199 142.593 166.002C142.593 166.81 142.455 167.511 142.18 168.104C141.905 168.694 141.524 169.152 141.037 169.477C140.549 169.798 139.988 169.959 139.351 169.959C138.861 169.959 138.468 169.878 138.173 169.715C137.878 169.55 137.651 169.362 137.492 169.153C137.333 168.941 137.21 168.766 137.124 168.627H137.025V172.663H135.851ZM137.005 165.982C137.005 166.558 137.089 167.067 137.258 167.508C137.427 167.945 137.674 168.288 137.999 168.537C138.324 168.782 138.721 168.905 139.192 168.905C139.683 168.905 140.092 168.776 140.42 168.517C140.752 168.255 141 167.904 141.166 167.463C141.335 167.019 141.419 166.525 141.419 165.982C141.419 165.445 141.337 164.961 141.171 164.53C141.008 164.096 140.761 163.753 140.43 163.501C140.102 163.246 139.689 163.118 139.192 163.118C138.715 163.118 138.314 163.239 137.989 163.481C137.664 163.72 137.419 164.054 137.253 164.485C137.087 164.913 137.005 165.412 137.005 165.982ZM148.32 169.8V162.163H149.493V169.8H148.32ZM148.917 160.891C148.688 160.891 148.491 160.813 148.325 160.657C148.163 160.501 148.081 160.314 148.081 160.095C148.081 159.877 148.163 159.689 148.325 159.533C148.491 159.378 148.688 159.3 148.917 159.3C149.145 159.3 149.341 159.378 149.503 159.533C149.669 159.689 149.752 159.877 149.752 160.095C149.752 160.314 149.669 160.501 149.503 160.657C149.341 160.813 149.145 160.891 148.917 160.891ZM157.051 163.874L155.997 164.172C155.931 163.996 155.833 163.826 155.704 163.66C155.578 163.491 155.406 163.352 155.187 163.242C154.968 163.133 154.688 163.078 154.347 163.078C153.879 163.078 153.49 163.186 153.178 163.401C152.87 163.613 152.716 163.884 152.716 164.212C152.716 164.503 152.822 164.734 153.034 164.903C153.246 165.072 153.578 165.213 154.029 165.325L155.162 165.604C155.845 165.77 156.354 166.023 156.688 166.364C157.023 166.703 157.191 167.138 157.191 167.672C157.191 168.109 157.065 168.501 156.813 168.845C156.564 169.19 156.216 169.462 155.769 169.661C155.321 169.859 154.801 169.959 154.208 169.959C153.429 169.959 152.784 169.79 152.274 169.452C151.763 169.114 151.44 168.62 151.304 167.97L152.418 167.692C152.524 168.103 152.724 168.411 153.019 168.617C153.318 168.822 153.707 168.925 154.188 168.925C154.735 168.925 155.169 168.809 155.49 168.577C155.815 168.341 155.977 168.06 155.977 167.732C155.977 167.466 155.885 167.244 155.699 167.065C155.513 166.883 155.228 166.747 154.844 166.658L153.571 166.359C152.872 166.194 152.358 165.937 152.03 165.589C151.705 165.238 151.543 164.798 151.543 164.271C151.543 163.841 151.664 163.459 151.906 163.128C152.151 162.796 152.484 162.536 152.905 162.347C153.329 162.158 153.81 162.064 154.347 162.064C155.102 162.064 155.696 162.23 156.127 162.561C156.561 162.893 156.869 163.33 157.051 163.874ZM164.067 165.206V169.8H162.894V162.163H164.028V163.357H164.127C164.306 162.969 164.578 162.657 164.942 162.422C165.307 162.183 165.778 162.064 166.354 162.064C166.871 162.064 167.324 162.17 167.712 162.382C168.099 162.591 168.401 162.909 168.616 163.337C168.832 163.761 168.94 164.298 168.94 164.948V169.8H167.766V165.027C167.766 164.427 167.611 163.96 167.299 163.625C166.987 163.287 166.56 163.118 166.016 163.118C165.642 163.118 165.307 163.199 165.012 163.362C164.72 163.524 164.49 163.761 164.321 164.073C164.152 164.384 164.067 164.762 164.067 165.206ZM174.186 169.959C173.497 169.959 172.892 169.795 172.371 169.467C171.854 169.139 171.45 168.68 171.158 168.09C170.87 167.5 170.726 166.81 170.726 166.021C170.726 165.226 170.87 164.532 171.158 163.938C171.45 163.345 171.854 162.884 172.371 162.556C172.892 162.228 173.497 162.064 174.186 162.064C174.875 162.064 175.479 162.228 175.996 162.556C176.516 162.884 176.92 163.345 177.209 163.938C177.5 164.532 177.646 165.226 177.646 166.021C177.646 166.81 177.5 167.5 177.209 168.09C176.92 168.68 176.516 169.139 175.996 169.467C175.479 169.795 174.875 169.959 174.186 169.959ZM174.186 168.905C174.71 168.905 175.14 168.771 175.479 168.502C175.817 168.234 176.067 167.881 176.229 167.443C176.392 167.006 176.473 166.532 176.473 166.021C176.473 165.511 176.392 165.035 176.229 164.595C176.067 164.154 175.817 163.797 175.479 163.526C175.14 163.254 174.71 163.118 174.186 163.118C173.662 163.118 173.231 163.254 172.893 163.526C172.555 163.797 172.305 164.154 172.143 164.595C171.98 165.035 171.899 165.511 171.899 166.021C171.899 166.532 171.98 167.006 172.143 167.443C172.305 167.881 172.555 168.234 172.893 168.502C173.231 168.771 173.662 168.905 174.186 168.905ZM180.907 169.8L178.581 162.163H179.814L181.464 168.01H181.544L183.175 162.163H184.427L186.038 167.99H186.118L187.768 162.163H189.001L186.675 169.8H185.521L183.851 163.933H183.731L182.061 169.8H180.907ZM195.067 169.8H193.774L197.513 159.618H198.785L202.524 169.8H201.231L198.189 161.229H198.109L195.067 169.8ZM195.544 165.823H200.754V166.916H195.544V165.823ZM205.343 159.618V169.8H204.11V159.618H205.343ZM212.031 164.888V165.982H207.576V164.888H212.031ZM214.095 172.663V162.163H215.229V163.377H215.368C215.454 163.244 215.574 163.075 215.726 162.869C215.882 162.661 216.104 162.475 216.392 162.313C216.684 162.147 217.078 162.064 217.575 162.064C218.218 162.064 218.785 162.225 219.276 162.546C219.766 162.868 220.149 163.323 220.424 163.913C220.699 164.503 220.837 165.199 220.837 166.002C220.837 166.81 220.699 167.511 220.424 168.104C220.149 168.694 219.768 169.152 219.281 169.477C218.794 169.798 218.232 169.959 217.595 169.959C217.105 169.959 216.712 169.878 216.417 169.715C216.122 169.55 215.895 169.362 215.736 169.153C215.577 168.941 215.454 168.766 215.368 168.627H215.269V172.663H214.095ZM215.249 165.982C215.249 166.558 215.333 167.067 215.502 167.508C215.671 167.945 215.918 168.288 216.243 168.537C216.568 168.782 216.966 168.905 217.436 168.905C217.927 168.905 218.336 168.776 218.664 168.517C218.996 168.255 219.244 167.904 219.41 167.463C219.579 167.019 219.664 166.525 219.664 165.982C219.664 165.445 219.581 164.961 219.415 164.53C219.253 164.096 219.006 163.753 218.674 163.501C218.346 163.246 217.933 163.118 217.436 163.118C216.959 163.118 216.558 163.239 216.233 163.481C215.908 163.72 215.663 164.054 215.497 164.485C215.332 164.913 215.249 165.412 215.249 165.982ZM225.729 169.959C225.039 169.959 224.435 169.795 223.914 169.467C223.397 169.139 222.993 168.68 222.701 168.09C222.413 167.5 222.269 166.81 222.269 166.021C222.269 165.226 222.413 164.532 222.701 163.938C222.993 163.345 223.397 162.884 223.914 162.556C224.435 162.228 225.039 162.064 225.729 162.064C226.418 162.064 227.021 162.228 227.539 162.556C228.059 162.884 228.463 163.345 228.752 163.938C229.043 164.532 229.189 165.226 229.189 166.021C229.189 166.81 229.043 167.5 228.752 168.09C228.463 168.68 228.059 169.139 227.539 169.467C227.021 169.795 226.418 169.959 225.729 169.959ZM225.729 168.905C226.253 168.905 226.683 168.771 227.021 168.502C227.36 168.234 227.61 167.881 227.772 167.443C227.935 167.006 228.016 166.532 228.016 166.021C228.016 165.511 227.935 165.035 227.772 164.595C227.61 164.154 227.36 163.797 227.021 163.526C226.683 163.254 226.253 163.118 225.729 163.118C225.205 163.118 224.774 163.254 224.436 163.526C224.098 163.797 223.848 164.154 223.686 164.595C223.523 165.035 223.442 165.511 223.442 166.021C223.442 166.532 223.523 167.006 223.686 167.443C223.848 167.881 224.098 168.234 224.436 168.502C224.774 168.771 225.205 168.905 225.729 168.905ZM232.45 169.8L230.124 162.163H231.357L233.007 168.01H233.087L234.718 162.163H235.97L237.581 167.99H237.661L239.311 162.163H240.544L238.218 169.8H237.064L235.394 163.933H235.274L233.604 169.8H232.45ZM245.037 169.959C244.301 169.959 243.667 169.796 243.133 169.472C242.603 169.144 242.194 168.686 241.905 168.1C241.62 167.51 241.478 166.823 241.478 166.041C241.478 165.259 241.62 164.57 241.905 163.973C242.194 163.373 242.595 162.906 243.108 162.571C243.625 162.233 244.229 162.064 244.918 162.064C245.316 162.064 245.708 162.13 246.096 162.263C246.484 162.395 246.837 162.611 247.155 162.909C247.473 163.204 247.727 163.595 247.916 164.082C248.105 164.57 248.199 165.17 248.199 165.882V166.379H242.313V165.365H247.006C247.006 164.934 246.92 164.55 246.748 164.212C246.578 163.874 246.337 163.607 246.022 163.411C245.71 163.216 245.342 163.118 244.918 163.118C244.451 163.118 244.046 163.234 243.705 163.466C243.367 163.695 243.107 163.993 242.924 164.361C242.742 164.729 242.651 165.123 242.651 165.544V166.22C242.651 166.797 242.75 167.286 242.949 167.687C243.151 168.085 243.431 168.388 243.789 168.597C244.147 168.802 244.563 168.905 245.037 168.905C245.346 168.905 245.624 168.862 245.873 168.776C246.124 168.686 246.342 168.554 246.524 168.378C246.706 168.199 246.847 167.977 246.946 167.712L248.08 168.03C247.961 168.414 247.76 168.752 247.478 169.044C247.197 169.332 246.849 169.558 246.434 169.72C246.02 169.879 245.554 169.959 245.037 169.959ZM249.984 169.8V162.163H251.118V163.317H251.197C251.336 162.939 251.588 162.632 251.953 162.397C252.317 162.162 252.728 162.044 253.186 162.044C253.272 162.044 253.38 162.046 253.509 162.049C253.638 162.052 253.736 162.057 253.802 162.064V163.257C253.762 163.247 253.671 163.232 253.529 163.212C253.39 163.189 253.242 163.178 253.086 163.178C252.715 163.178 252.384 163.256 252.092 163.411C251.804 163.564 251.575 163.776 251.406 164.048C251.24 164.316 251.157 164.623 251.157 164.967V169.8H249.984ZM258.162 169.959C257.426 169.959 256.792 169.796 256.258 169.472C255.728 169.144 255.319 168.686 255.03 168.1C254.745 167.51 254.603 166.823 254.603 166.041C254.603 165.259 254.745 164.57 255.03 163.973C255.319 163.373 255.72 162.906 256.233 162.571C256.75 162.233 257.354 162.064 258.043 162.064C258.441 162.064 258.833 162.13 259.221 162.263C259.609 162.395 259.962 162.611 260.28 162.909C260.598 163.204 260.852 163.595 261.041 164.082C261.23 164.57 261.324 165.17 261.324 165.882V166.379H255.438V165.365H260.131C260.131 164.934 260.045 164.55 259.873 164.212C259.703 163.874 259.462 163.607 259.147 163.411C258.835 163.216 258.467 163.118 258.043 163.118C257.576 163.118 257.171 163.234 256.83 163.466C256.492 163.695 256.232 163.993 256.049 164.361C255.867 164.729 255.776 165.123 255.776 165.544V166.22C255.776 166.797 255.875 167.286 256.074 167.687C256.276 168.085 256.556 168.388 256.914 168.597C257.272 168.802 257.688 168.905 258.162 168.905C258.471 168.905 258.749 168.862 258.998 168.776C259.249 168.686 259.467 168.554 259.649 168.378C259.831 168.199 259.972 167.977 260.071 167.712L261.205 168.03C261.086 168.414 260.885 168.752 260.603 169.044C260.322 169.332 259.974 169.558 259.559 169.72C259.145 169.879 258.679 169.959 258.162 169.959ZM265.993 169.959C265.356 169.959 264.794 169.798 264.307 169.477C263.82 169.152 263.439 168.694 263.164 168.104C262.889 167.511 262.751 166.81 262.751 166.002C262.751 165.199 262.889 164.503 263.164 163.913C263.439 163.323 263.822 162.868 264.312 162.546C264.803 162.225 265.369 162.064 266.012 162.064C266.51 162.064 266.902 162.147 267.191 162.313C267.482 162.475 267.704 162.661 267.857 162.869C268.013 163.075 268.134 163.244 268.22 163.377H268.319V159.618H269.493V169.8H268.359V168.627H268.22C268.134 168.766 268.011 168.941 267.852 169.153C267.693 169.362 267.466 169.55 267.171 169.715C266.876 169.878 266.483 169.959 265.993 169.959ZM266.152 168.905C266.622 168.905 267.02 168.782 267.345 168.537C267.67 168.288 267.917 167.945 268.086 167.508C268.255 167.067 268.339 166.558 268.339 165.982C268.339 165.412 268.256 164.913 268.091 164.485C267.925 164.054 267.68 163.72 267.355 163.481C267.03 163.239 266.629 163.118 266.152 163.118C265.654 163.118 265.24 163.246 264.909 163.501C264.581 163.753 264.334 164.096 264.168 164.53C264.006 164.961 263.924 165.445 263.924 165.982C263.924 166.525 264.007 167.019 264.173 167.463C264.342 167.904 264.591 168.255 264.919 168.517C265.25 168.776 265.661 168.905 266.152 168.905Z" fill="#6B7280"/>
<defs>
<clipPath id="clip0_7_1663">
<path d="M146 67H167V91H146V67Z" fill="white"/>
</clipPath>
</defs>
</svg>
