<svg width="314" height="200" viewBox="0 0 314 200" fill="none" xmlns="http://www.w3.org/2000/svg">
<path d="M305.5 0C309.918 0 313.5 3.58172 313.5 8V192C313.5 196.418 309.918 200 305.5 200H8.5C4.08173 200 0.5 196.418 0.5 192V8C0.500002 3.58172 4.08172 0 8.5 0H305.5Z" fill="#F3F4F6"/>
<path d="M305.5 0C309.918 0 313.5 3.58172 313.5 8V192C313.5 196.418 309.918 200 305.5 200H8.5C4.08173 200 0.5 196.418 0.5 192V8C0.500002 3.58172 4.08172 0 8.5 0H305.5Z" stroke="#E5E7EB"/>
<path d="M297.5 184H16.5V16H297.5V184Z" stroke="#E5E7EB"/>
<path d="M291.5 16C294.814 16 297.5 18.6863 297.5 22V58C297.5 61.3137 294.814 64 291.5 64H22.5C19.1863 64 16.5 61.3137 16.5 58V22C16.5 18.6863 19.1863 16 22.5 16H291.5Z" fill="white"/>
<path d="M291.5 16C294.814 16 297.5 18.6863 297.5 22V58C297.5 61.3137 294.814 64 291.5 64H22.5C19.1863 64 16.5 61.3137 16.5 58V22C16.5 18.6863 19.1863 16 22.5 16H291.5Z" stroke="#E5E7EB"/>
<path d="M162.281 52H28.5V28H162.281V52Z" stroke="#E5E7EB"/>
<path d="M36.125 34.9805C36.0644 34.4426 35.8144 34.026 35.375 33.7305C34.9356 33.4313 34.3826 33.2816 33.7159 33.2816C33.2386 33.2816 32.8258 33.3574 32.4773 33.5089C32.1288 33.6566 31.858 33.8612 31.6648 34.1226C31.4754 34.3801 31.3807 34.6737 31.3807 35.0032C31.3807 35.2798 31.4451 35.5184 31.5739 35.7191C31.7064 35.9199 31.8788 36.0885 32.0909 36.2248C32.3068 36.3574 32.5379 36.4691 32.7841 36.5601C33.0303 36.6472 33.267 36.7191 33.4943 36.776L34.6307 37.0714C35.0019 37.1623 35.3826 37.2854 35.7727 37.4407C36.1629 37.596 36.5246 37.8006 36.858 38.0544C37.1913 38.3082 37.4602 38.6226 37.6648 38.9976C37.8731 39.3726 37.9773 39.8214 37.9773 40.3441C37.9773 41.0032 37.8068 41.5885 37.4659 42.0998C37.1288 42.6112 36.6383 43.0146 35.9943 43.3101C35.3542 43.6055 34.5795 43.7532 33.6705 43.7532C32.7992 43.7532 32.0455 43.615 31.4091 43.3385C30.7727 43.062 30.2746 42.6699 29.9148 42.1623C29.5549 41.651 29.3561 41.0449 29.3182 40.3441H31.0795C31.1136 40.7646 31.25 41.115 31.4886 41.3953C31.7311 41.6718 32.0398 41.8782 32.4148 42.0146C32.7936 42.1472 33.2083 42.2135 33.6591 42.2135C34.1553 42.2135 34.5966 42.1358 34.983 41.9805C35.3731 41.8214 35.6799 41.6017 35.9034 41.3214C36.1269 41.0373 36.2386 40.7059 36.2386 40.3271C36.2386 39.9824 36.1402 39.7002 35.9432 39.4805C35.75 39.2608 35.4867 39.079 35.1534 38.9351C34.8239 38.7911 34.4508 38.6642 34.0341 38.5544L32.6591 38.1794C31.7273 37.9256 30.9886 37.5525 30.4432 37.0601C29.9015 36.5676 29.6307 35.9161 29.6307 35.1055C29.6307 34.4351 29.8125 33.8498 30.1761 33.3498C30.5398 32.8498 31.0322 32.4616 31.6534 32.1851C32.2746 31.9048 32.9754 31.7646 33.7557 31.7646C34.5436 31.7646 35.2386 31.9029 35.8409 32.1794C36.447 32.4559 36.9242 32.8366 37.2727 33.3214C37.6212 33.8025 37.803 34.3555 37.8182 34.9805H36.125ZM39.9389 43.5601V34.8328H41.5696V36.2532H41.6776C41.8594 35.7722 42.1567 35.3972 42.5696 35.1282C42.9825 34.8555 43.4768 34.7191 44.0526 34.7191C44.6359 34.7191 45.1245 34.8555 45.5185 35.1282C45.9162 35.401 46.2098 35.776 46.3991 36.2532H46.4901C46.6984 35.7873 47.0298 35.4161 47.4844 35.1396C47.9389 34.8593 48.4806 34.7191 49.1094 34.7191C49.901 34.7191 50.5469 34.9673 51.0469 35.4635C51.5507 35.9597 51.8026 36.7078 51.8026 37.7078V43.5601H50.1037V37.8669C50.1037 37.276 49.9427 36.8479 49.6207 36.5828C49.2988 36.3176 48.9143 36.1851 48.4673 36.1851C47.9143 36.1851 47.4844 36.3555 47.1776 36.6964C46.8707 37.0335 46.7173 37.4673 46.7173 37.9976V43.5601H45.0241V37.7589C45.0241 37.2854 44.8764 36.9048 44.581 36.6169C44.2855 36.329 43.901 36.1851 43.4276 36.1851C43.1056 36.1851 42.8082 36.2703 42.5355 36.4407C42.2666 36.6074 42.0488 36.8404 41.8821 37.1396C41.7192 37.4388 41.6378 37.7854 41.6378 38.1794V43.5601H39.9389ZM56.6193 43.7532C56.0663 43.7532 55.5663 43.651 55.1193 43.4464C54.6723 43.2381 54.3182 42.937 54.0568 42.543C53.7992 42.1491 53.6705 41.6661 53.6705 41.0941C53.6705 40.6017 53.7652 40.1964 53.9545 39.8782C54.1439 39.5601 54.3996 39.3082 54.7216 39.1226C55.0436 38.937 55.4034 38.7968 55.8011 38.7021C56.1989 38.6074 56.6042 38.5354 57.017 38.4862C57.5398 38.4256 57.964 38.3763 58.2898 38.3385C58.6155 38.2968 58.8523 38.2305 59 38.1396C59.1477 38.0487 59.2216 37.901 59.2216 37.6964V37.6566C59.2216 37.1604 59.0814 36.776 58.8011 36.5032C58.5246 36.2305 58.1117 36.0941 57.5625 36.0941C56.9905 36.0941 56.5398 36.221 56.2102 36.4748C55.8845 36.7248 55.6591 37.0032 55.5341 37.3101L53.9375 36.9464C54.1269 36.4161 54.4034 35.9881 54.767 35.6623C55.1345 35.3328 55.5568 35.0941 56.0341 34.9464C56.5114 34.7949 57.0133 34.7191 57.5398 34.7191C57.8883 34.7191 58.2576 34.7608 58.6477 34.8441C59.0417 34.9237 59.4091 35.0714 59.75 35.2873C60.0947 35.5032 60.3769 35.812 60.5966 36.2135C60.8163 36.6112 60.9261 37.1282 60.9261 37.7646V43.5601H59.267V42.3669H59.1989C59.089 42.5866 58.9242 42.8025 58.7045 43.0146C58.4848 43.2267 58.2027 43.4029 57.858 43.543C57.5133 43.6832 57.1004 43.7532 56.6193 43.7532ZM56.9886 42.3896C57.4583 42.3896 57.8598 42.2968 58.1932 42.1112C58.5303 41.9256 58.786 41.6832 58.9602 41.3839C59.1383 41.0809 59.2273 40.757 59.2273 40.4123V39.2873C59.1667 39.3479 59.0492 39.4048 58.875 39.4578C58.7045 39.507 58.5095 39.5506 58.2898 39.5885C58.0701 39.6226 57.8561 39.6548 57.6477 39.6851C57.4394 39.7116 57.2652 39.7343 57.125 39.7532C56.7955 39.7949 56.4943 39.865 56.2216 39.9635C55.9527 40.062 55.7367 40.204 55.5739 40.3896C55.4148 40.5714 55.3352 40.8138 55.3352 41.1169C55.3352 41.5373 55.4905 41.8555 55.8011 42.0714C56.1117 42.2835 56.5076 42.3896 56.9886 42.3896ZM63.1889 43.5601V34.8328H64.831V36.2191H64.9219C65.081 35.7495 65.3613 35.3801 65.7628 35.1112C66.1681 34.8385 66.6264 34.7021 67.1378 34.7021C67.2438 34.7021 67.3688 34.7059 67.5128 34.7135C67.6605 34.721 67.776 34.7305 67.8594 34.7419V36.3669C67.7912 36.3479 67.67 36.3271 67.4957 36.3044C67.3215 36.2779 67.1473 36.2646 66.973 36.2646C66.5715 36.2646 66.2135 36.3498 65.8991 36.5203C65.5885 36.687 65.3423 36.9199 65.1605 37.2191C64.9787 37.5146 64.8878 37.8517 64.8878 38.2305V43.5601H63.1889ZM73.919 34.8328V36.1964H69.152V34.8328H73.919ZM70.4304 32.7419H72.1293V40.9976C72.1293 41.3271 72.1785 41.5752 72.277 41.7419C72.3755 41.9048 72.5024 42.0165 72.6577 42.0771C72.8168 42.1339 72.9891 42.1623 73.1747 42.1623C73.3111 42.1623 73.4304 42.1529 73.5327 42.1339C73.6349 42.115 73.7145 42.0998 73.7713 42.0885L74.0781 43.4919C73.9796 43.5298 73.8395 43.5676 73.6577 43.6055C73.4759 43.6472 73.2486 43.6699 72.9759 43.6737C72.5289 43.6813 72.1122 43.6017 71.7259 43.4351C71.3395 43.2684 71.027 43.0108 70.7884 42.6623C70.5497 42.3138 70.4304 41.8763 70.4304 41.3498V32.7419ZM80.169 43.5601V31.9237H84.3168C85.2183 31.9237 85.9664 32.079 86.5611 32.3896C87.1596 32.7002 87.6065 33.1301 87.902 33.6794C88.1974 34.2248 88.3452 34.8555 88.3452 35.5714C88.3452 36.2835 88.1955 36.9104 87.8963 37.4521C87.6009 37.99 87.1539 38.4085 86.5554 38.7078C85.9607 39.007 85.2126 39.1566 84.3111 39.1566H81.169V37.6453H84.152C84.7202 37.6453 85.1823 37.5638 85.5384 37.401C85.8982 37.2381 86.1615 37.0013 86.3281 36.6907C86.4948 36.3801 86.5781 36.007 86.5781 35.5714C86.5781 35.132 86.4929 34.7513 86.3224 34.4294C86.1558 34.1074 85.8925 33.8612 85.5327 33.6907C85.1766 33.5165 84.7088 33.4294 84.1293 33.4294H81.9247V43.5601H80.169ZM85.9134 38.3101L88.7884 43.5601H86.7884L83.9702 38.3101H85.9134ZM93.9972 43.7362C93.1373 43.7362 92.3968 43.5525 91.7756 43.1851C91.1581 42.8138 90.6809 42.293 90.3438 41.6226C90.0104 40.9483 89.8438 40.1585 89.8438 39.2532C89.8438 38.3593 90.0104 37.5714 90.3438 36.8896C90.6809 36.2078 91.1506 35.6756 91.7528 35.293C92.3589 34.9104 93.0672 34.7191 93.8778 34.7191C94.3703 34.7191 94.8475 34.8006 95.3097 34.9635C95.7718 35.1263 96.1866 35.382 96.554 35.7305C96.9214 36.079 97.2112 36.5316 97.4233 37.0885C97.6354 37.6415 97.7415 38.3138 97.7415 39.1055V39.7078H90.804V38.4351H96.0767C96.0767 37.9881 95.9858 37.5923 95.804 37.2476C95.6222 36.8991 95.3665 36.6245 95.0369 36.4237C94.7112 36.2229 94.3286 36.1226 93.8892 36.1226C93.4119 36.1226 92.9953 36.24 92.6392 36.4748C92.2869 36.7059 92.0142 37.0089 91.821 37.3839C91.6316 37.7551 91.5369 38.1585 91.5369 38.5941V39.5885C91.5369 40.1718 91.6392 40.668 91.8438 41.0771C92.0521 41.4862 92.3419 41.7987 92.7131 42.0146C93.0843 42.2267 93.518 42.3328 94.0142 42.3328C94.3362 42.3328 94.6297 42.2873 94.8949 42.1964C95.16 42.1017 95.3892 41.9616 95.5824 41.776C95.7756 41.5904 95.9233 41.3612 96.0256 41.0885L97.6335 41.3782C97.5047 41.8517 97.2737 42.2665 96.9403 42.6226C96.6108 42.9748 96.196 43.2495 95.696 43.4464C95.1998 43.6396 94.6335 43.7362 93.9972 43.7362ZM106.166 36.9635L104.626 37.2362C104.562 37.0392 104.46 36.8517 104.32 36.6737C104.183 36.4957 103.998 36.3498 103.763 36.2362C103.528 36.1226 103.234 36.0657 102.882 36.0657C102.401 36.0657 102 36.1737 101.678 36.3896C101.356 36.6017 101.195 36.8763 101.195 37.2135C101.195 37.5051 101.303 37.74 101.518 37.918C101.734 38.096 102.083 38.2419 102.564 38.3555L103.95 38.6737C104.753 38.8593 105.352 39.1453 105.746 39.5316C106.14 39.918 106.337 40.4199 106.337 41.0373C106.337 41.5601 106.185 42.026 105.882 42.4351C105.583 42.8404 105.164 43.1585 104.626 43.3896C104.092 43.6207 103.473 43.7362 102.768 43.7362C101.791 43.7362 100.994 43.5279 100.376 43.1112C99.759 42.6907 99.3802 42.0941 99.2401 41.3214L100.882 41.0714C100.984 41.4995 101.195 41.8233 101.513 42.043C101.831 42.2589 102.246 42.3669 102.757 42.3669C103.314 42.3669 103.759 42.2513 104.092 42.0203C104.426 41.7854 104.592 41.4995 104.592 41.1623C104.592 40.8896 104.49 40.6604 104.286 40.4748C104.085 40.2892 103.776 40.1491 103.359 40.0544L101.882 39.7305C101.068 39.5449 100.465 39.2495 100.075 38.8441C99.6889 38.4388 99.4957 37.9256 99.4957 37.3044C99.4957 36.7892 99.6397 36.3385 99.9276 35.9521C100.215 35.5657 100.613 35.2646 101.121 35.0487C101.628 34.829 102.21 34.7191 102.865 34.7191C103.808 34.7191 104.551 34.9237 105.092 35.3328C105.634 35.7381 105.992 36.2816 106.166 36.9635ZM108.205 46.8328V34.8328H109.864V36.2476H110.006C110.104 36.0657 110.246 35.8555 110.432 35.6169C110.617 35.3782 110.875 35.1699 111.205 34.9919C111.534 34.8101 111.97 34.7191 112.511 34.7191C113.216 34.7191 113.845 34.8972 114.398 35.2532C114.951 35.6093 115.384 36.1226 115.699 36.793C116.017 37.4635 116.176 38.2703 116.176 39.2135C116.176 40.1566 116.019 40.9654 115.705 41.6396C115.39 42.3101 114.958 42.8271 114.409 43.1907C113.86 43.5506 113.233 43.7305 112.528 43.7305C111.998 43.7305 111.564 43.6415 111.227 43.4635C110.894 43.2854 110.633 43.0771 110.443 42.8385C110.254 42.5998 110.108 42.3877 110.006 42.2021H109.903V46.8328H108.205ZM109.869 39.1964C109.869 39.8101 109.958 40.3479 110.136 40.8101C110.314 41.2722 110.572 41.6339 110.909 41.8953C111.246 42.1529 111.659 42.2816 112.148 42.2816C112.655 42.2816 113.08 42.1472 113.42 41.8782C113.761 41.6055 114.019 41.2362 114.193 40.7703C114.371 40.3044 114.46 39.7798 114.46 39.1964C114.46 38.6207 114.373 38.1036 114.199 37.6453C114.028 37.187 113.771 36.8252 113.426 36.5601C113.085 36.2949 112.659 36.1623 112.148 36.1623C111.655 36.1623 111.239 36.2892 110.898 36.543C110.561 36.7968 110.305 37.151 110.131 37.6055C109.956 38.0601 109.869 38.5904 109.869 39.1964ZM121.756 43.7362C120.938 43.7362 120.223 43.5487 119.614 43.1737C119.004 42.7987 118.53 42.2741 118.193 41.5998C117.856 40.9256 117.688 40.1377 117.688 39.2362C117.688 38.3309 117.856 37.5392 118.193 36.8612C118.53 36.1832 119.004 35.6566 119.614 35.2816C120.223 34.9066 120.938 34.7191 121.756 34.7191C122.574 34.7191 123.288 34.9066 123.898 35.2816C124.508 35.6566 124.981 36.1832 125.318 36.8612C125.655 37.5392 125.824 38.3309 125.824 39.2362C125.824 40.1377 125.655 40.9256 125.318 41.5998C124.981 42.2741 124.508 42.7987 123.898 43.1737C123.288 43.5487 122.574 43.7362 121.756 43.7362ZM121.761 42.3101C122.292 42.3101 122.731 42.1699 123.08 41.8896C123.428 41.6093 123.686 41.2362 123.852 40.7703C124.023 40.3044 124.108 39.7911 124.108 39.2305C124.108 38.6737 124.023 38.1623 123.852 37.6964C123.686 37.2267 123.428 36.8498 123.08 36.5657C122.731 36.2816 122.292 36.1396 121.761 36.1396C121.227 36.1396 120.784 36.2816 120.432 36.5657C120.083 36.8498 119.824 37.2267 119.653 37.6964C119.487 38.1623 119.403 38.6737 119.403 39.2305C119.403 39.7911 119.487 40.3044 119.653 40.7703C119.824 41.2362 120.083 41.6093 120.432 41.8896C120.784 42.1699 121.227 42.3101 121.761 42.3101ZM129.419 38.3782V43.5601H127.72V34.8328H129.351V36.2532H129.459C129.66 35.7911 129.974 35.4199 130.402 35.1396C130.834 34.8593 131.377 34.7191 132.033 34.7191C132.627 34.7191 133.148 34.8441 133.595 35.0941C134.042 35.3404 134.389 35.7078 134.635 36.1964C134.881 36.6851 135.004 37.2892 135.004 38.0089V43.5601H133.305V38.2135C133.305 37.5809 133.141 37.0866 132.811 36.7305C132.482 36.3707 132.029 36.1907 131.453 36.1907C131.059 36.1907 130.709 36.276 130.402 36.4464C130.099 36.6169 129.858 36.8669 129.68 37.1964C129.506 37.5222 129.419 37.9161 129.419 38.3782ZM143.822 36.9635L142.283 37.2362C142.218 37.0392 142.116 36.8517 141.976 36.6737C141.839 36.4957 141.654 36.3498 141.419 36.2362C141.184 36.1226 140.891 36.0657 140.538 36.0657C140.057 36.0657 139.656 36.1737 139.334 36.3896C139.012 36.6017 138.851 36.8763 138.851 37.2135C138.851 37.5051 138.959 37.74 139.175 37.918C139.391 38.096 139.739 38.2419 140.22 38.3555L141.607 38.6737C142.41 38.8593 143.008 39.1453 143.402 39.5316C143.796 39.918 143.993 40.4199 143.993 41.0373C143.993 41.5601 143.841 42.026 143.538 42.4351C143.239 42.8404 142.821 43.1585 142.283 43.3896C141.749 43.6207 141.129 43.7362 140.425 43.7362C139.447 43.7362 138.65 43.5279 138.033 43.1112C137.415 42.6907 137.036 42.0941 136.896 41.3214L138.538 41.0714C138.641 41.4995 138.851 41.8233 139.169 42.043C139.487 42.2589 139.902 42.3669 140.413 42.3669C140.97 42.3669 141.415 42.2513 141.749 42.0203C142.082 41.7854 142.249 41.4995 142.249 41.1623C142.249 40.8896 142.146 40.6604 141.942 40.4748C141.741 40.2892 141.432 40.1491 141.016 40.0544L139.538 39.7305C138.724 39.5449 138.122 39.2495 137.732 38.8441C137.345 38.4388 137.152 37.9256 137.152 37.3044C137.152 36.7892 137.296 36.3385 137.584 35.9521C137.872 35.5657 138.269 35.2646 138.777 35.0487C139.285 34.829 139.866 34.7191 140.521 34.7191C141.464 34.7191 142.207 34.9237 142.749 35.3328C143.29 35.7381 143.648 36.2816 143.822 36.9635ZM149.622 43.7362C148.762 43.7362 148.022 43.5525 147.401 43.1851C146.783 42.8138 146.306 42.293 145.969 41.6226C145.635 40.9483 145.469 40.1585 145.469 39.2532C145.469 38.3593 145.635 37.5714 145.969 36.8896C146.306 36.2078 146.776 35.6756 147.378 35.293C147.984 34.9104 148.692 34.7191 149.503 34.7191C149.995 34.7191 150.473 34.8006 150.935 34.9635C151.397 35.1263 151.812 35.382 152.179 35.7305C152.546 36.079 152.836 36.5316 153.048 37.0885C153.26 37.6415 153.366 38.3138 153.366 39.1055V39.7078H146.429V38.4351H151.702C151.702 37.9881 151.611 37.5923 151.429 37.2476C151.247 36.8991 150.991 36.6245 150.662 36.4237C150.336 36.2229 149.954 36.1226 149.514 36.1226C149.037 36.1226 148.62 36.24 148.264 36.4748C147.912 36.7059 147.639 37.0089 147.446 37.3839C147.257 37.7551 147.162 38.1585 147.162 38.5941V39.5885C147.162 40.1718 147.264 40.668 147.469 41.0771C147.677 41.4862 147.967 41.7987 148.338 42.0146C148.709 42.2267 149.143 42.3328 149.639 42.3328C149.961 42.3328 150.255 42.2873 150.52 42.1964C150.785 42.1017 151.014 41.9616 151.207 41.776C151.401 41.5904 151.548 41.3612 151.651 41.0885L153.259 41.3782C153.13 41.8517 152.899 42.2665 152.565 42.6226C152.236 42.9748 151.821 43.2495 151.321 43.4464C150.825 43.6396 150.259 43.7362 149.622 43.7362ZM161.791 36.9635L160.251 37.2362C160.187 37.0392 160.085 36.8517 159.945 36.6737C159.808 36.4957 159.623 36.3498 159.388 36.2362C159.153 36.1226 158.859 36.0657 158.507 36.0657C158.026 36.0657 157.625 36.1737 157.303 36.3896C156.981 36.6017 156.82 36.8763 156.82 37.2135C156.82 37.5051 156.928 37.74 157.143 37.918C157.359 38.096 157.708 38.2419 158.189 38.3555L159.575 38.6737C160.378 38.8593 160.977 39.1453 161.371 39.5316C161.765 39.918 161.962 40.4199 161.962 41.0373C161.962 41.5601 161.81 42.026 161.507 42.4351C161.208 42.8404 160.789 43.1585 160.251 43.3896C159.717 43.6207 159.098 43.7362 158.393 43.7362C157.416 43.7362 156.619 43.5279 156.001 43.1112C155.384 42.6907 155.005 42.0941 154.865 41.3214L156.507 41.0714C156.609 41.4995 156.82 41.8233 157.138 42.043C157.456 42.2589 157.871 42.3669 158.382 42.3669C158.939 42.3669 159.384 42.2513 159.717 42.0203C160.051 41.7854 160.217 41.4995 160.217 41.1623C160.217 40.8896 160.115 40.6604 159.911 40.4748C159.71 40.2892 159.401 40.1491 158.984 40.0544L157.507 39.7305C156.693 39.5449 156.09 39.2495 155.7 38.8441C155.314 38.4388 155.121 37.9256 155.121 37.3044C155.121 36.7892 155.265 36.3385 155.553 35.9521C155.84 35.5657 156.238 35.2646 156.746 35.0487C157.253 34.829 157.835 34.7191 158.49 34.7191C159.433 34.7191 160.176 34.9237 160.717 35.3328C161.259 35.7381 161.617 36.2816 161.791 36.9635Z" fill="#0A0A0A"/>
<path d="M273.5 28C280.127 28 285.5 33.3726 285.5 40C285.5 46.6274 280.127 52 273.5 52H249.5C242.873 52 237.5 46.6274 237.5 40C237.5 33.3726 242.873 28 249.5 28H273.5Z" fill="#4000BF"/>
<path d="M273.5 28C280.127 28 285.5 33.3726 285.5 40C285.5 46.6274 280.127 52 273.5 52H249.5C242.873 52 237.5 46.6274 237.5 40C237.5 33.3726 242.873 28 249.5 28H273.5Z" stroke="#E5E7EB"/>
<path d="M273.5 30C279.023 30 283.5 34.4772 283.5 40C283.5 45.5228 279.023 50 273.5 50C267.977 50 263.5 45.5228 263.5 40C263.5 34.4772 267.977 30 273.5 30Z" fill="white"/>
<path d="M273.5 30C279.023 30 283.5 34.4772 283.5 40C283.5 45.5228 279.023 50 273.5 50C267.977 50 263.5 45.5228 263.5 40C263.5 34.4772 267.977 30 273.5 30Z" stroke="#E5E7EB"/>
<path d="M291.5 76C294.814 76 297.5 78.6863 297.5 82V118C297.5 121.314 294.814 124 291.5 124H22.5C19.1863 124 16.5 121.314 16.5 118V82C16.5 78.6863 19.1863 76 22.5 76H291.5Z" fill="white"/>
<path d="M291.5 76C294.814 76 297.5 78.6863 297.5 82V118C297.5 121.314 294.814 124 291.5 124H22.5C19.1863 124 16.5 121.314 16.5 118V82C16.5 78.6863 19.1863 76 22.5 76H291.5Z" stroke="#E5E7EB"/>
<path d="M113.375 112H28.5V88H113.375V112Z" stroke="#E5E7EB"/>
<path d="M29.2045 93.4351V91.9237H38.2102V93.4351H34.5795V103.56H32.8295V93.4351H29.2045ZM39.1577 103.56V94.8328H40.7997V96.2191H40.8906C41.0497 95.7495 41.33 95.3801 41.7315 95.1112C42.1368 94.8385 42.5952 94.7021 43.1065 94.7021C43.2126 94.7021 43.3376 94.7059 43.4815 94.7135C43.6293 94.721 43.7448 94.7305 43.8281 94.7419V96.3669C43.7599 96.3479 43.6387 96.3271 43.4645 96.3044C43.2902 96.2779 43.116 96.2646 42.9418 96.2646C42.5402 96.2646 42.1823 96.3498 41.8679 96.5203C41.5573 96.687 41.3111 96.9199 41.1293 97.2191C40.9474 97.5146 40.8565 97.8517 40.8565 98.2305V103.56H39.1577ZM47.7599 103.753C47.2069 103.753 46.7069 103.651 46.2599 103.446C45.813 103.238 45.4588 102.937 45.1974 102.543C44.9399 102.149 44.8111 101.666 44.8111 101.094C44.8111 100.602 44.9058 100.196 45.0952 99.8782C45.2846 99.5601 45.5402 99.3082 45.8622 99.1226C46.1842 98.937 46.544 98.7968 46.9418 98.7021C47.3395 98.6074 47.7448 98.5354 48.1577 98.4862C48.6804 98.4256 49.1046 98.3763 49.4304 98.3385C49.7562 98.2968 49.9929 98.2305 50.1406 98.1396C50.2884 98.0487 50.3622 97.901 50.3622 97.6964V97.6566C50.3622 97.1604 50.2221 96.776 49.9418 96.5032C49.6652 96.2305 49.2524 96.0941 48.7031 96.0941C48.1312 96.0941 47.6804 96.221 47.3509 96.4748C47.0251 96.7248 46.7997 97.0032 46.6747 97.3101L45.0781 96.9464C45.2675 96.4161 45.544 95.9881 45.9077 95.6623C46.2751 95.3328 46.6974 95.0941 47.1747 94.9464C47.652 94.7949 48.1539 94.7191 48.6804 94.7191C49.0289 94.7191 49.3982 94.7608 49.7884 94.8441C50.1823 94.9237 50.5497 95.0714 50.8906 95.2873C51.2353 95.5032 51.5175 95.812 51.7372 96.2135C51.9569 96.6112 52.0668 97.1282 52.0668 97.7646V103.56H50.4077V102.367H50.3395C50.2296 102.587 50.0649 102.802 49.8452 103.015C49.6255 103.227 49.3433 103.403 48.9986 103.543C48.6539 103.683 48.241 103.753 47.7599 103.753ZM48.1293 102.39C48.599 102.39 49.0005 102.297 49.3338 102.111C49.6709 101.926 49.9266 101.683 50.1009 101.384C50.2789 101.081 50.3679 100.757 50.3679 100.412V99.2873C50.3073 99.3479 50.1899 99.4048 50.0156 99.4578C49.8452 99.507 49.6501 99.5506 49.4304 99.5885C49.2107 99.6226 48.9967 99.6548 48.7884 99.6851C48.58 99.7116 48.4058 99.7343 48.2656 99.7532C47.9361 99.7949 47.6349 99.865 47.3622 99.9635C47.0933 100.062 46.8774 100.204 46.7145 100.39C46.5554 100.571 46.4759 100.814 46.4759 101.117C46.4759 101.537 46.6312 101.856 46.9418 102.071C47.2524 102.284 47.6482 102.39 48.1293 102.39ZM56.0284 98.3782V103.56H54.3295V94.8328H55.9602V96.2532H56.0682C56.2689 95.7911 56.5833 95.4199 57.0114 95.1396C57.4432 94.8593 57.9867 94.7191 58.642 94.7191C59.2367 94.7191 59.7576 94.8441 60.2045 95.0941C60.6515 95.3404 60.9981 95.7078 61.2443 96.1964C61.4905 96.6851 61.6136 97.2892 61.6136 98.0089V103.56H59.9148V98.2135C59.9148 97.5809 59.75 97.0866 59.4205 96.7305C59.0909 96.3707 58.6383 96.1907 58.0625 96.1907C57.6686 96.1907 57.3182 96.276 57.0114 96.4464C56.7083 96.6169 56.4678 96.8669 56.2898 97.1964C56.1155 97.5222 56.0284 97.9161 56.0284 98.3782ZM70.4318 96.9635L68.892 97.2362C68.8277 97.0392 68.7254 96.8517 68.5852 96.6737C68.4489 96.4957 68.2633 96.3498 68.0284 96.2362C67.7936 96.1226 67.5 96.0657 67.1477 96.0657C66.6667 96.0657 66.2652 96.1737 65.9432 96.3896C65.6212 96.6017 65.4602 96.8763 65.4602 97.2135C65.4602 97.5051 65.5682 97.74 65.7841 97.918C66 98.096 66.3485 98.2419 66.8295 98.3555L68.2159 98.6737C69.0189 98.8593 69.6174 99.1453 70.0114 99.5316C70.4053 99.918 70.6023 100.42 70.6023 101.037C70.6023 101.56 70.4508 102.026 70.1477 102.435C69.8485 102.84 69.4299 103.159 68.892 103.39C68.358 103.621 67.7386 103.736 67.0341 103.736C66.0568 103.736 65.2595 103.528 64.642 103.111C64.0246 102.691 63.6458 102.094 63.5057 101.321L65.1477 101.071C65.25 101.499 65.4602 101.823 65.7784 102.043C66.0966 102.259 66.5114 102.367 67.0227 102.367C67.5795 102.367 68.0246 102.251 68.358 102.02C68.6913 101.785 68.858 101.499 68.858 101.162C68.858 100.89 68.7557 100.66 68.5511 100.475C68.3504 100.289 68.0417 100.149 67.625 100.054L66.1477 99.7305C65.3333 99.5449 64.7311 99.2495 64.3409 98.8441C63.9545 98.4388 63.7614 97.9256 63.7614 97.3044C63.7614 96.7892 63.9053 96.3385 64.1932 95.9521C64.4811 95.5657 64.8788 95.2646 65.3864 95.0487C65.8939 94.829 66.4754 94.7191 67.1307 94.7191C68.0739 94.7191 68.8163 94.9237 69.358 95.3328C69.8996 95.7381 70.2576 96.2816 70.4318 96.9635ZM74.169 91.9237V103.56H72.4702V91.9237H74.169ZM78.9943 103.753C78.4413 103.753 77.9413 103.651 77.4943 103.446C77.0473 103.238 76.6932 102.937 76.4318 102.543C76.1742 102.149 76.0455 101.666 76.0455 101.094C76.0455 100.602 76.1402 100.196 76.3295 99.8782C76.5189 99.5601 76.7746 99.3082 77.0966 99.1226C77.4186 98.937 77.7784 98.7968 78.1761 98.7021C78.5739 98.6074 78.9792 98.5354 79.392 98.4862C79.9148 98.4256 80.339 98.3763 80.6648 98.3385C80.9905 98.2968 81.2273 98.2305 81.375 98.1396C81.5227 98.0487 81.5966 97.901 81.5966 97.6964V97.6566C81.5966 97.1604 81.4564 96.776 81.1761 96.5032C80.8996 96.2305 80.4867 96.0941 79.9375 96.0941C79.3655 96.0941 78.9148 96.221 78.5852 96.4748C78.2595 96.7248 78.0341 97.0032 77.9091 97.3101L76.3125 96.9464C76.5019 96.4161 76.7784 95.9881 77.142 95.6623C77.5095 95.3328 77.9318 95.0941 78.4091 94.9464C78.8864 94.7949 79.3883 94.7191 79.9148 94.7191C80.2633 94.7191 80.6326 94.7608 81.0227 94.8441C81.4167 94.9237 81.7841 95.0714 82.125 95.2873C82.4697 95.5032 82.7519 95.812 82.9716 96.2135C83.1913 96.6112 83.3011 97.1282 83.3011 97.7646V103.56H81.642V102.367H81.5739C81.464 102.587 81.2992 102.802 81.0795 103.015C80.8598 103.227 80.5777 103.403 80.233 103.543C79.8883 103.683 79.4754 103.753 78.9943 103.753ZM79.3636 102.39C79.8333 102.39 80.2348 102.297 80.5682 102.111C80.9053 101.926 81.161 101.683 81.3352 101.384C81.5133 101.081 81.6023 100.757 81.6023 100.412V99.2873C81.5417 99.3479 81.4242 99.4048 81.25 99.4578C81.0795 99.507 80.8845 99.5506 80.6648 99.5885C80.4451 99.6226 80.2311 99.6548 80.0227 99.6851C79.8144 99.7116 79.6402 99.7343 79.5 99.7532C79.1705 99.7949 78.8693 99.865 78.5966 99.9635C78.3277 100.062 78.1117 100.204 77.9489 100.39C77.7898 100.571 77.7102 100.814 77.7102 101.117C77.7102 101.537 77.8655 101.856 78.1761 102.071C78.4867 102.284 78.8826 102.39 79.3636 102.39ZM89.6378 94.8328V96.1964H84.8707V94.8328H89.6378ZM86.1491 92.7419H87.848V100.998C87.848 101.327 87.8973 101.575 87.9957 101.742C88.0942 101.905 88.2211 102.016 88.3764 102.077C88.5355 102.134 88.7079 102.162 88.8935 102.162C89.0298 102.162 89.1491 102.153 89.2514 102.134C89.3537 102.115 89.4332 102.1 89.4901 102.088L89.7969 103.492C89.6984 103.53 89.5582 103.568 89.3764 103.606C89.1946 103.647 88.9673 103.67 88.6946 103.674C88.2476 103.681 87.831 103.602 87.4446 103.435C87.0582 103.268 86.7457 103.011 86.5071 102.662C86.2685 102.314 86.1491 101.876 86.1491 101.35V92.7419ZM91.517 103.56V94.8328H93.2159V103.56H91.517ZM92.375 93.4862C92.0795 93.4862 91.8258 93.3877 91.6136 93.1907C91.4053 92.99 91.3011 92.7513 91.3011 92.4748C91.3011 92.1945 91.4053 91.9559 91.6136 91.7589C91.8258 91.5582 92.0795 91.4578 92.375 91.4578C92.6705 91.4578 92.9223 91.5582 93.1307 91.7589C93.3428 91.9559 93.4489 92.1945 93.4489 92.4748C93.4489 92.7513 93.3428 92.99 93.1307 93.1907C92.9223 93.3877 92.6705 93.4862 92.375 93.4862ZM99.1776 103.736C98.3594 103.736 97.6454 103.549 97.0355 103.174C96.4257 102.799 95.9522 102.274 95.6151 101.6C95.2779 100.926 95.1094 100.138 95.1094 99.2362C95.1094 98.3309 95.2779 97.5392 95.6151 96.8612C95.9522 96.1832 96.4257 95.6566 97.0355 95.2816C97.6454 94.9066 98.3594 94.7191 99.1776 94.7191C99.9957 94.7191 100.71 94.9066 101.32 95.2816C101.929 95.6566 102.403 96.1832 102.74 96.8612C103.077 97.5392 103.246 98.3309 103.246 99.2362C103.246 100.138 103.077 100.926 102.74 101.6C102.403 102.274 101.929 102.799 101.32 103.174C100.71 103.549 99.9957 103.736 99.1776 103.736ZM99.1832 102.31C99.7135 102.31 100.153 102.17 100.501 101.89C100.85 101.609 101.107 101.236 101.274 100.77C101.445 100.304 101.53 99.7911 101.53 99.2305C101.53 98.6737 101.445 98.1623 101.274 97.6964C101.107 97.2267 100.85 96.8498 100.501 96.5657C100.153 96.2816 99.7135 96.1396 99.1832 96.1396C98.6491 96.1396 98.206 96.2816 97.8537 96.5657C97.5052 96.8498 97.2457 97.2267 97.0753 97.6964C96.9086 98.1623 96.8253 98.6737 96.8253 99.2305C96.8253 99.7911 96.9086 100.304 97.0753 100.77C97.2457 101.236 97.5052 101.609 97.8537 101.89C98.206 102.17 98.6491 102.31 99.1832 102.31ZM106.841 98.3782V103.56H105.142V94.8328H106.773V96.2532H106.881C107.081 95.7911 107.396 95.4199 107.824 95.1396C108.256 94.8593 108.799 94.7191 109.455 94.7191C110.049 94.7191 110.57 94.8441 111.017 95.0941C111.464 95.3404 111.811 95.7078 112.057 96.1964C112.303 96.6851 112.426 97.2892 112.426 98.0089V103.56H110.727V98.2135C110.727 97.5809 110.563 97.0866 110.233 96.7305C109.903 96.3707 109.451 96.1907 108.875 96.1907C108.481 96.1907 108.131 96.276 107.824 96.4464C107.521 96.6169 107.28 96.8669 107.102 97.1964C106.928 97.5222 106.841 97.9161 106.841 98.3782Z" fill="#0A0A0A"/>
<path d="M273.5 88C280.127 88 285.5 93.3726 285.5 100C285.5 106.627 280.127 112 273.5 112H249.5C242.873 112 237.5 106.627 237.5 100C237.5 93.3726 242.873 88 249.5 88H273.5Z" fill="#4000BF"/>
<path d="M273.5 88C280.127 88 285.5 93.3726 285.5 100C285.5 106.627 280.127 112 273.5 112H249.5C242.873 112 237.5 106.627 237.5 100C237.5 93.3726 242.873 88 249.5 88H273.5Z" stroke="#E5E7EB"/>
<path d="M273.5 90C279.023 90 283.5 94.4772 283.5 100C283.5 105.523 279.023 110 273.5 110C267.977 110 263.5 105.523 263.5 100C263.5 94.4772 267.977 90 273.5 90Z" fill="white"/>
<path d="M273.5 90C279.023 90 283.5 94.4772 283.5 100C283.5 105.523 279.023 110 273.5 110C267.977 110 263.5 105.523 263.5 100C263.5 94.4772 267.977 90 273.5 90Z" stroke="#E5E7EB"/>
<path d="M291.5 136C294.814 136 297.5 138.686 297.5 142V178C297.5 181.314 294.814 184 291.5 184H22.5C19.1863 184 16.5 181.314 16.5 178V142C16.5 138.686 19.1863 136 22.5 136H291.5Z" fill="white"/>
<path d="M291.5 136C294.814 136 297.5 138.686 297.5 142V178C297.5 181.314 294.814 184 291.5 184H22.5C19.1863 184 16.5 181.314 16.5 178V142C16.5 138.686 19.1863 136 22.5 136H291.5Z" stroke="#E5E7EB"/>
<path d="M119.328 172H28.5V148H119.328V172Z" stroke="#E5E7EB"/>
<path d="M30.7614 163.56H28.8977L33.0852 151.924H35.1136L39.3011 163.56H37.4375L34.1477 154.037H34.0568L30.7614 163.56ZM31.0739 159.003H37.1193V160.481H31.0739V159.003ZM42.7372 151.924V163.56H40.9815V151.924H42.7372ZM50.5114 163.56H48.6477L52.8352 151.924H54.8636L59.0511 163.56H57.1875L53.8977 154.037H53.8068L50.5114 163.56ZM50.8239 159.003H56.8693V160.481H50.8239V159.003ZM67.0724 156.963L65.5327 157.236C65.4683 157.039 65.366 156.852 65.2259 156.674C65.0895 156.496 64.9039 156.35 64.669 156.236C64.4342 156.123 64.1406 156.066 63.7884 156.066C63.3073 156.066 62.9058 156.174 62.5838 156.39C62.2618 156.602 62.1009 156.876 62.1009 157.213C62.1009 157.505 62.2088 157.74 62.4247 157.918C62.6406 158.096 62.9891 158.242 63.4702 158.356L64.8565 158.674C65.6596 158.859 66.258 159.145 66.652 159.532C67.0459 159.918 67.2429 160.42 67.2429 161.037C67.2429 161.56 67.0914 162.026 66.7884 162.435C66.4891 162.84 66.0705 163.159 65.5327 163.39C64.9986 163.621 64.3793 163.736 63.6747 163.736C62.6974 163.736 61.9001 163.528 61.2827 163.111C60.6652 162.691 60.2865 162.094 60.1463 161.321L61.7884 161.071C61.8906 161.499 62.1009 161.823 62.419 162.043C62.7372 162.259 63.152 162.367 63.6634 162.367C64.2202 162.367 64.6652 162.251 64.9986 162.02C65.3319 161.785 65.4986 161.499 65.4986 161.162C65.4986 160.89 65.3963 160.66 65.1918 160.475C64.991 160.289 64.6823 160.149 64.2656 160.054L62.7884 159.731C61.974 159.545 61.3717 159.249 60.9815 158.844C60.5952 158.439 60.402 157.926 60.402 157.304C60.402 156.789 60.5459 156.338 60.8338 155.952C61.1217 155.566 61.5194 155.265 62.027 155.049C62.5346 154.829 63.116 154.719 63.7713 154.719C64.7145 154.719 65.4569 154.924 65.9986 155.333C66.5402 155.738 66.8982 156.282 67.0724 156.963ZM75.6506 156.963L74.1108 157.236C74.0464 157.039 73.9441 156.852 73.804 156.674C73.6676 156.496 73.482 156.35 73.2472 156.236C73.0123 156.123 72.7188 156.066 72.3665 156.066C71.8854 156.066 71.4839 156.174 71.1619 156.39C70.84 156.602 70.679 156.876 70.679 157.213C70.679 157.505 70.7869 157.74 71.0028 157.918C71.2188 158.096 71.5672 158.242 72.0483 158.356L73.4347 158.674C74.2377 158.859 74.8362 159.145 75.2301 159.532C75.6241 159.918 75.821 160.42 75.821 161.037C75.821 161.56 75.6695 162.026 75.3665 162.435C75.0672 162.84 74.6487 163.159 74.1108 163.39C73.5767 163.621 72.9574 163.736 72.2528 163.736C71.2756 163.736 70.4782 163.528 69.8608 163.111C69.2434 162.691 68.8646 162.094 68.7244 161.321L70.3665 161.071C70.4688 161.499 70.679 161.823 70.9972 162.043C71.3153 162.259 71.7301 162.367 72.2415 162.367C72.7983 162.367 73.2434 162.251 73.5767 162.02C73.91 161.785 74.0767 161.499 74.0767 161.162C74.0767 160.89 73.9744 160.66 73.7699 160.475C73.5691 160.289 73.2604 160.149 72.8438 160.054L71.3665 159.731C70.5521 159.545 69.9498 159.249 69.5597 158.844C69.1733 158.439 68.9801 157.926 68.9801 157.304C68.9801 156.789 69.1241 156.338 69.4119 155.952C69.6998 155.566 70.0975 155.265 70.6051 155.049C71.1127 154.829 71.6941 154.719 72.3494 154.719C73.2926 154.719 74.035 154.924 74.5767 155.333C75.1184 155.738 75.4763 156.282 75.6506 156.963ZM77.6889 163.56V154.833H79.3878V163.56H77.6889ZM78.5469 153.486C78.2514 153.486 77.9976 153.388 77.7855 153.191C77.5772 152.99 77.473 152.751 77.473 152.475C77.473 152.195 77.5772 151.956 77.7855 151.759C77.9976 151.558 78.2514 151.458 78.5469 151.458C78.8423 151.458 79.0942 151.558 79.3026 151.759C79.5147 151.956 79.6207 152.195 79.6207 152.475C79.6207 152.751 79.5147 152.99 79.3026 153.191C79.0942 153.388 78.8423 153.486 78.5469 153.486ZM88.2131 156.963L86.6733 157.236C86.6089 157.039 86.5066 156.852 86.3665 156.674C86.2301 156.496 86.0445 156.35 85.8097 156.236C85.5748 156.123 85.2813 156.066 84.929 156.066C84.4479 156.066 84.0464 156.174 83.7244 156.39C83.4025 156.602 83.2415 156.876 83.2415 157.213C83.2415 157.505 83.3494 157.74 83.5653 157.918C83.7813 158.096 84.1297 158.242 84.6108 158.356L85.9972 158.674C86.8002 158.859 87.3987 159.145 87.7926 159.532C88.1866 159.918 88.3835 160.42 88.3835 161.037C88.3835 161.56 88.232 162.026 87.929 162.435C87.6297 162.84 87.2112 163.159 86.6733 163.39C86.1392 163.621 85.5199 163.736 84.8153 163.736C83.8381 163.736 83.0407 163.528 82.4233 163.111C81.8059 162.691 81.4271 162.094 81.2869 161.321L82.929 161.071C83.0313 161.499 83.2415 161.823 83.5597 162.043C83.8778 162.259 84.2926 162.367 84.804 162.367C85.3608 162.367 85.8059 162.251 86.1392 162.02C86.4725 161.785 86.6392 161.499 86.6392 161.162C86.6392 160.89 86.5369 160.66 86.3324 160.475C86.1316 160.289 85.8229 160.149 85.4062 160.054L83.929 159.731C83.1146 159.545 82.5123 159.249 82.1222 158.844C81.7358 158.439 81.5426 157.926 81.5426 157.304C81.5426 156.789 81.6866 156.338 81.9744 155.952C82.2623 155.566 82.66 155.265 83.1676 155.049C83.6752 154.829 84.2566 154.719 84.9119 154.719C85.8551 154.719 86.5975 154.924 87.1392 155.333C87.6809 155.738 88.0388 156.282 88.2131 156.963ZM94.3253 154.833V156.196H89.5582V154.833H94.3253ZM90.8366 152.742H92.5355V160.998C92.5355 161.327 92.5848 161.575 92.6832 161.742C92.7817 161.905 92.9086 162.016 93.0639 162.077C93.223 162.134 93.3954 162.162 93.581 162.162C93.7173 162.162 93.8366 162.153 93.9389 162.134C94.0412 162.115 94.1207 162.1 94.1776 162.088L94.4844 163.492C94.3859 163.53 94.2457 163.568 94.0639 163.606C93.8821 163.647 93.6548 163.67 93.3821 163.674C92.9351 163.681 92.5185 163.602 92.1321 163.435C91.7457 163.268 91.4332 163.011 91.1946 162.662C90.956 162.314 90.8366 161.876 90.8366 161.35V152.742ZM98.7443 163.753C98.1913 163.753 97.6913 163.651 97.2443 163.446C96.7973 163.238 96.4432 162.937 96.1818 162.543C95.9242 162.149 95.7955 161.666 95.7955 161.094C95.7955 160.602 95.8902 160.196 96.0795 159.878C96.2689 159.56 96.5246 159.308 96.8466 159.123C97.1686 158.937 97.5284 158.797 97.9261 158.702C98.3239 158.607 98.7292 158.535 99.142 158.486C99.6648 158.426 100.089 158.376 100.415 158.338C100.741 158.297 100.977 158.231 101.125 158.14C101.273 158.049 101.347 157.901 101.347 157.696V157.657C101.347 157.16 101.206 156.776 100.926 156.503C100.65 156.231 100.237 156.094 99.6875 156.094C99.1155 156.094 98.6648 156.221 98.3352 156.475C98.0095 156.725 97.7841 157.003 97.6591 157.31L96.0625 156.946C96.2519 156.416 96.5284 155.988 96.892 155.662C97.2595 155.333 97.6818 155.094 98.1591 154.946C98.6364 154.795 99.1383 154.719 99.6648 154.719C100.013 154.719 100.383 154.761 100.773 154.844C101.167 154.924 101.534 155.071 101.875 155.287C102.22 155.503 102.502 155.812 102.722 156.213C102.941 156.611 103.051 157.128 103.051 157.765V163.56H101.392V162.367H101.324C101.214 162.587 101.049 162.802 100.83 163.015C100.61 163.227 100.328 163.403 99.983 163.543C99.6383 163.683 99.2254 163.753 98.7443 163.753ZM99.1136 162.39C99.5833 162.39 99.9848 162.297 100.318 162.111C100.655 161.926 100.911 161.683 101.085 161.384C101.263 161.081 101.352 160.757 101.352 160.412V159.287C101.292 159.348 101.174 159.405 101 159.458C100.83 159.507 100.634 159.551 100.415 159.588C100.195 159.623 99.9811 159.655 99.7727 159.685C99.5644 159.712 99.3902 159.734 99.25 159.753C98.9205 159.795 98.6193 159.865 98.3466 159.963C98.0777 160.062 97.8617 160.204 97.6989 160.39C97.5398 160.571 97.4602 160.814 97.4602 161.117C97.4602 161.537 97.6155 161.856 97.9261 162.071C98.2367 162.284 98.6326 162.39 99.1136 162.39ZM107.013 158.378V163.56H105.314V154.833H106.945V156.253H107.053C107.253 155.791 107.568 155.42 107.996 155.14C108.428 154.859 108.971 154.719 109.626 154.719C110.221 154.719 110.742 154.844 111.189 155.094C111.636 155.34 111.982 155.708 112.229 156.196C112.475 156.685 112.598 157.289 112.598 158.009V163.56H110.899V158.213C110.899 157.581 110.734 157.087 110.405 156.731C110.075 156.371 109.623 156.191 109.047 156.191C108.653 156.191 108.303 156.276 107.996 156.446C107.693 156.617 107.452 156.867 107.274 157.196C107.1 157.522 107.013 157.916 107.013 158.378ZM118.95 154.833V156.196H114.183V154.833H118.95ZM115.462 152.742H117.161V160.998C117.161 161.327 117.21 161.575 117.308 161.742C117.407 161.905 117.534 162.016 117.689 162.077C117.848 162.134 118.02 162.162 118.206 162.162C118.342 162.162 118.462 162.153 118.564 162.134C118.666 162.115 118.746 162.1 118.803 162.088L119.109 163.492C119.011 163.53 118.871 163.568 118.689 163.606C118.507 163.647 118.28 163.67 118.007 163.674C117.56 163.681 117.143 163.602 116.757 163.435C116.371 163.268 116.058 163.011 115.82 162.662C115.581 162.314 115.462 161.876 115.462 161.35V152.742Z" fill="#0A0A0A"/>
<path d="M273.5 148C280.127 148 285.5 153.373 285.5 160C285.5 166.627 280.127 172 273.5 172H249.5C242.873 172 237.5 166.627 237.5 160C237.5 153.373 242.873 148 249.5 148H273.5Z" fill="#4000BF"/>
<path d="M273.5 148C280.127 148 285.5 153.373 285.5 160C285.5 166.627 280.127 172 273.5 172H249.5C242.873 172 237.5 166.627 237.5 160C237.5 153.373 242.873 148 249.5 148H273.5Z" stroke="#E5E7EB"/>
<path d="M273.5 150C279.023 150 283.5 154.477 283.5 160C283.5 165.523 279.023 170 273.5 170C267.977 170 263.5 165.523 263.5 160C263.5 154.477 267.977 150 273.5 150Z" fill="white"/>
<path d="M273.5 150C279.023 150 283.5 154.477 283.5 160C283.5 165.523 279.023 170 273.5 170C267.977 170 263.5 165.523 263.5 160C263.5 154.477 267.977 150 273.5 150Z" stroke="#E5E7EB"/>
</svg>
