<svg width="96" height="96" viewBox="0 0 96 96" fill="none" xmlns="http://www.w3.org/2000/svg">
<path d="M48 0C74.5097 0 96 21.4903 96 48C96 74.5097 74.5097 96 48 96C21.4903 96 0 74.5097 0 48C0 21.4903 21.4903 0 48 0Z" fill="#FFD3FE"/>
<path d="M48 0C74.5097 0 96 21.4903 96 48C96 74.5097 74.5097 96 48 96C21.4903 96 0 74.5097 0 48C0 21.4903 21.4903 0 48 0Z" stroke="#E5E7EB"/>
<g clip-path="url(#clip0_7_1624)">
<path d="M41.25 34C33.7969 34 27.75 40.0469 27.75 47.5C27.75 54.9531 33.7969 61 41.25 61H54.75C62.2031 61 68.25 54.9531 68.25 47.5C68.25 40.0469 62.2031 34 54.75 34H41.25ZM54.75 40.75C56.5402 40.75 58.2571 41.4612 59.523 42.727C60.7888 43.9929 61.5 45.7098 61.5 47.5C61.5 49.2902 60.7888 51.0071 59.523 52.273C58.2571 53.5388 56.5402 54.25 54.75 54.25C52.9598 54.25 51.2429 53.5388 49.977 52.273C48.7112 51.0071 48 49.2902 48 47.5C48 45.7098 48.7112 43.9929 49.977 42.727C51.2429 41.4612 52.9598 40.75 54.75 40.75Z" fill="#8F008C"/>
</g>
<defs>
<clipPath id="clip0_7_1624">
<path d="M27.75 29.5H68.25V65.5H27.75V29.5Z" fill="white"/>
</clipPath>
</defs>
</svg>
