<svg width="821" height="135" viewBox="0 0 821 135" fill="none" xmlns="http://www.w3.org/2000/svg">
<path d="M0 34.7381C0 16.0312 15.9773 1.3132 34.6213 2.84559L138.621 11.3935C155.222 12.758 168 26.6292 168 43.286V91.8731C168 108.597 155.122 122.5 138.448 123.779L34.4476 131.757C15.8645 133.183 0 118.489 0 99.8512V34.7381Z" fill="url(#paint0_linear_115_9)"/>
<rect x="110.4" y="53" width="27.2" height="27.2" rx="13.6" fill="white"/>
<path d="M245.137 86.8055C239.719 86.8055 236.753 84.182 235.042 78.0227L217.876 15.7445C217.306 13.6344 216.963 11.5813 216.963 10.0414C216.963 5.25078 220.214 2.28516 225.461 2.28516C229.967 2.28516 232.704 4.79453 233.731 9.69922L246.049 63.0234H246.506L260.364 9.98438C261.676 4.62344 264.413 2.28516 269.204 2.28516C273.881 2.28516 276.732 4.79453 277.987 9.87031L291.845 63.0234H292.302L304.62 9.69922C305.704 4.7375 308.442 2.28516 312.947 2.28516C318.194 2.28516 321.445 5.25078 321.445 10.0414C321.445 11.5242 321.102 13.5773 320.532 15.7445L303.309 78.1367C301.598 84.182 298.632 86.8055 293.328 86.8055C287.796 86.8055 284.774 84.2391 283.12 78.0797L269.432 29.4891H268.919L255.288 78.0797C253.634 84.125 250.555 86.8055 245.137 86.8055Z" fill="#0A0A0A"/>
<path d="M341.349 86.6914C329.714 86.6914 320.874 79.1633 320.874 68.1562C320.874 57.0352 329.429 50.5906 344.713 49.6781L360.112 48.7656V44.7164C360.112 39.0133 356.12 35.7055 349.846 35.7055C344.77 35.7055 341.691 37.3594 337.984 42.15C336.159 44.2031 334.049 45.2297 331.368 45.2297C327.319 45.2297 324.41 42.6063 324.41 38.8422C324.41 37.5305 324.695 36.3328 325.266 35.0781C328.117 27.7781 337.927 23.2727 350.588 23.2727C366.271 23.2727 376.48 31.3711 376.48 43.6898V78.5359C376.48 84.068 373.115 86.9195 368.381 86.9195C363.876 86.9195 360.739 84.4102 360.397 79.5055V76.3688H360.055C356.633 82.8703 348.991 86.6914 341.349 86.6914ZM346.824 74.6578C354.124 74.6578 360.112 69.9242 360.112 63.3086V58.8602L347.223 59.6586C341.006 60.1148 337.47 62.9094 337.47 67.2438C337.47 71.8063 341.234 74.6578 346.824 74.6578Z" fill="#0A0A0A"/>
<path d="M395.984 86.9195C391.137 86.9195 387.658 83.9539 387.658 78.2508V10.8969C387.658 5.19375 391.137 2.17109 395.984 2.17109C400.889 2.17109 404.311 5.19375 404.311 10.8969V78.2508C404.311 83.9539 400.889 86.9195 395.984 86.9195Z" fill="#0A0A0A"/>
<path d="M424.272 86.9195C419.424 86.9195 415.945 83.9539 415.945 78.2508V10.8969C415.945 5.19375 419.424 2.17109 424.272 2.17109C429.177 2.17109 432.599 5.19375 432.599 10.8969V78.2508C432.599 83.9539 429.177 86.9195 424.272 86.9195Z" fill="#0A0A0A"/>
<path d="M471.95 87.0336C452.845 87.0336 441.609 75.2281 441.609 55.4383C441.609 35.7625 453.073 23.2727 471.152 23.2727C488.489 23.2727 500.124 35.1352 500.124 51.7313C500.124 56.3508 497.5 58.9742 492.881 58.9742H457.977V59.7156C457.977 68.7836 463.452 74.7148 471.893 74.7148C477.995 74.7148 481.988 72.6617 486.493 67.3578C488.261 65.5328 489.744 64.9055 491.911 64.9055C495.504 64.9055 498.413 67.1867 498.413 71.0078C498.413 72.3195 498.013 73.6883 497.272 75.057C493.223 82.5852 483.756 87.0336 471.95 87.0336ZM458.149 48.7656H484.098C483.756 40.7812 478.623 35.5914 471.323 35.5914C464.023 35.5914 458.719 40.9523 458.149 48.7656Z" fill="#0A0A0A"/>
<path d="M513.184 70.0953V37.1313H509.99C506.055 37.1313 503.545 34.7359 503.545 30.8578C503.545 26.9797 506.055 24.5844 509.99 24.5844H513.184V17.7977C513.184 12.4367 516.32 9.12891 521.51 9.12891C526.7 9.12891 529.837 12.4367 529.837 17.7977V24.5844H535.711C539.646 24.5844 542.099 27.0367 542.099 30.8578C542.099 34.6789 539.646 37.1313 535.711 37.1313H529.837V66.3883C529.837 70.7227 531.32 72.5477 534.913 72.8328L535.996 72.9469C540.102 73.4031 542.327 75.1141 542.327 78.9922C542.327 83.8969 537.536 86.4062 530.521 86.4062H529.951C518.83 86.4062 513.184 80.8742 513.184 70.0953Z" fill="#0A0A0A"/>
<path d="M611.506 87.0906C587.096 87.0906 572.268 71.1219 572.268 44.5453C572.268 18.0258 587.381 2 611.049 2C626.448 2 638.367 8.84375 644.013 20.7063C645.154 22.8734 645.724 25.0977 645.724 27.1508C645.724 31.6563 642.702 34.5648 638.139 34.5648C634.261 34.5648 631.809 32.8539 629.927 28.8617C626.163 20.4781 619.433 16.2578 611.22 16.2578C598.217 16.2578 589.834 27.1508 589.834 44.4883C589.834 62.0539 598.103 72.8898 611.277 72.8898C619.946 72.8898 626.448 68.9547 630.155 60.6852C631.923 56.807 634.09 55.2672 637.74 55.2672C642.588 55.2672 645.781 58.3469 645.781 62.9094C645.781 64.8484 645.325 66.6734 644.47 68.6695C639.337 80.0758 627.075 87.0906 611.506 87.0906Z" fill="#1C398E"/>
<path d="M666.712 86.9195C661.351 86.9195 658.1 83.6117 658.1 77.9656V12.3797C658.1 6.73359 661.294 3.42578 666.712 3.42578H691.806C710.74 3.42578 721.576 13.4062 721.576 29.6602C721.576 39.9258 716.5 48.7086 707.432 52.5867L719.295 73.118C720.72 75.5703 721.12 77.0531 721.12 79.0492C721.12 83.6117 717.47 86.9195 712.451 86.9195C708.345 86.9195 706.463 85.4367 703.668 80.418L689.981 55.6094H675.324V77.9656C675.324 83.6117 672.13 86.9195 666.712 86.9195ZM675.324 43.1195H690.152C698.82 43.1195 703.896 38.1578 703.896 30.0023C703.896 22.018 698.535 16.8852 689.981 16.8852H675.324V43.1195Z" fill="#1C398E"/>
<path d="M740.624 86.8055C735.777 86.8055 732.925 83.8398 732.925 78.7641V13.4062C732.925 6.44844 737.031 2.28516 744.046 2.28516C750.034 2.28516 753.342 4.79453 755.852 11.182L776.269 61.7688H776.725L797.085 11.182C799.595 4.85156 802.959 2.28516 809.005 2.28516C815.963 2.28516 820.069 6.39141 820.069 13.4062V78.7641C820.069 83.8398 817.217 86.8055 812.37 86.8055C807.522 86.8055 804.727 83.8398 804.727 78.7641V30.1734H804.271L783.911 79.9617C782.428 83.6117 780.147 85.2086 776.554 85.2086C772.904 85.2086 770.509 83.5547 769.083 80.0188L748.723 30.1734H748.266V78.7641C748.266 83.8398 745.472 86.8055 740.624 86.8055Z" fill="#1C398E"/>
<path d="M235.85 125.422V104.422H244.04C245.88 104.422 247.45 104.712 248.75 105.292C250.05 105.872 251.05 106.712 251.75 107.812C252.45 108.912 252.8 110.222 252.8 111.742C252.8 113.262 252.45 114.572 251.75 115.672C251.05 116.752 250.05 117.592 248.75 118.192C247.45 118.772 245.88 119.062 244.04 119.062H237.5L238.85 117.652V125.422H235.85ZM238.85 117.952L237.5 116.452H243.95C245.87 116.452 247.32 116.042 248.3 115.222C249.3 114.402 249.8 113.242 249.8 111.742C249.8 110.242 249.3 109.082 248.3 108.262C247.32 107.442 245.87 107.032 243.95 107.032H237.5L238.85 105.532V117.952Z" fill="#646464"/>
<path d="M263.539 125.602C261.939 125.602 260.519 125.252 259.279 124.552C258.039 123.852 257.059 122.892 256.339 121.672C255.619 120.432 255.259 119.032 255.259 117.472C255.259 115.892 255.619 114.492 256.339 113.272C257.059 112.052 258.039 111.102 259.279 110.422C260.519 109.722 261.939 109.372 263.539 109.372C265.119 109.372 266.529 109.722 267.769 110.422C269.029 111.102 270.009 112.052 270.709 113.272C271.429 114.472 271.789 115.872 271.789 117.472C271.789 119.052 271.429 120.452 270.709 121.672C270.009 122.892 269.029 123.852 267.769 124.552C266.529 125.252 265.119 125.602 263.539 125.602ZM263.539 123.082C264.559 123.082 265.469 122.852 266.269 122.392C267.089 121.932 267.729 121.282 268.189 120.442C268.649 119.582 268.879 118.592 268.879 117.472C268.879 116.332 268.649 115.352 268.189 114.532C267.729 113.692 267.089 113.042 266.269 112.582C265.469 112.122 264.559 111.892 263.539 111.892C262.519 111.892 261.609 112.122 260.809 112.582C260.009 113.042 259.369 113.692 258.889 114.532C258.409 115.352 258.169 116.332 258.169 117.472C258.169 118.592 258.409 119.582 258.889 120.442C259.369 121.282 260.009 121.932 260.809 122.392C261.609 122.852 262.519 123.082 263.539 123.082Z" fill="#646464"/>
<path d="M278.692 125.422L272.782 109.522H275.512L280.762 123.922H279.472L284.932 109.522H287.362L292.702 123.922H291.442L296.812 109.522H299.392L293.452 125.422H290.692L285.682 112.282H286.522L281.452 125.422H278.692Z" fill="#646464"/>
<path d="M308.955 125.602C307.255 125.602 305.755 125.252 304.455 124.552C303.175 123.852 302.175 122.892 301.455 121.672C300.755 120.452 300.405 119.052 300.405 117.472C300.405 115.892 300.745 114.492 301.425 113.272C302.125 112.052 303.075 111.102 304.275 110.422C305.495 109.722 306.865 109.372 308.385 109.372C309.925 109.372 311.285 109.712 312.465 110.392C313.645 111.072 314.565 112.032 315.225 113.272C315.905 114.492 316.245 115.922 316.245 117.562C316.245 117.682 316.235 117.822 316.215 117.982C316.215 118.142 316.205 118.292 316.185 118.432H302.655V116.362H314.685L313.515 117.082C313.535 116.062 313.325 115.152 312.885 114.352C312.445 113.552 311.835 112.932 311.055 112.492C310.295 112.032 309.405 111.802 308.385 111.802C307.385 111.802 306.495 112.032 305.715 112.492C304.935 112.932 304.325 113.562 303.885 114.382C303.445 115.182 303.225 116.102 303.225 117.142V117.622C303.225 118.682 303.465 119.632 303.945 120.472C304.445 121.292 305.135 121.932 306.015 122.392C306.895 122.852 307.905 123.082 309.045 123.082C309.985 123.082 310.835 122.922 311.595 122.602C312.375 122.282 313.055 121.802 313.635 121.162L315.225 123.022C314.505 123.862 313.605 124.502 312.525 124.942C311.465 125.382 310.275 125.602 308.955 125.602Z" fill="#646464"/>
<path d="M320.244 125.422V109.522H323.004V113.842L322.734 112.762C323.174 111.662 323.914 110.822 324.954 110.242C325.994 109.662 327.274 109.372 328.794 109.372V112.162C328.674 112.142 328.554 112.132 328.434 112.132C328.334 112.132 328.234 112.132 328.134 112.132C326.594 112.132 325.374 112.592 324.474 113.512C323.574 114.432 323.124 115.762 323.124 117.502V125.422H320.244Z" fill="#646464"/>
<path d="M339.278 125.602C337.578 125.602 336.078 125.252 334.778 124.552C333.498 123.852 332.498 122.892 331.778 121.672C331.078 120.452 330.728 119.052 330.728 117.472C330.728 115.892 331.068 114.492 331.748 113.272C332.448 112.052 333.398 111.102 334.598 110.422C335.818 109.722 337.188 109.372 338.708 109.372C340.248 109.372 341.608 109.712 342.788 110.392C343.968 111.072 344.888 112.032 345.548 113.272C346.228 114.492 346.568 115.922 346.568 117.562C346.568 117.682 346.558 117.822 346.538 117.982C346.538 118.142 346.528 118.292 346.508 118.432H332.978V116.362H345.008L343.838 117.082C343.858 116.062 343.648 115.152 343.208 114.352C342.768 113.552 342.158 112.932 341.378 112.492C340.618 112.032 339.728 111.802 338.708 111.802C337.708 111.802 336.818 112.032 336.038 112.492C335.258 112.932 334.648 113.562 334.208 114.382C333.768 115.182 333.548 116.102 333.548 117.142V117.622C333.548 118.682 333.788 119.632 334.268 120.472C334.768 121.292 335.458 121.932 336.338 122.392C337.218 122.852 338.228 123.082 339.368 123.082C340.308 123.082 341.158 122.922 341.918 122.602C342.698 122.282 343.378 121.802 343.958 121.162L345.548 123.022C344.828 123.862 343.928 124.502 342.848 124.942C341.788 125.382 340.598 125.602 339.278 125.602Z" fill="#646464"/>
<path d="M357.137 125.602C355.597 125.602 354.217 125.262 352.997 124.582C351.797 123.902 350.847 122.952 350.147 121.732C349.447 120.512 349.097 119.092 349.097 117.472C349.097 115.852 349.447 114.442 350.147 113.242C350.847 112.022 351.797 111.072 352.997 110.392C354.217 109.712 355.597 109.372 357.137 109.372C358.477 109.372 359.687 109.672 360.767 110.272C361.847 110.872 362.707 111.772 363.347 112.972C364.007 114.172 364.337 115.672 364.337 117.472C364.337 119.272 364.017 120.772 363.377 121.972C362.757 123.172 361.907 124.082 360.827 124.702C359.747 125.302 358.517 125.602 357.137 125.602ZM357.377 123.082C358.377 123.082 359.277 122.852 360.077 122.392C360.897 121.932 361.537 121.282 361.997 120.442C362.477 119.582 362.717 118.592 362.717 117.472C362.717 116.332 362.477 115.352 361.997 114.532C361.537 113.692 360.897 113.042 360.077 112.582C359.277 112.122 358.377 111.892 357.377 111.892C356.357 111.892 355.447 112.122 354.647 112.582C353.847 113.042 353.207 113.692 352.727 114.532C352.247 115.352 352.007 116.332 352.007 117.472C352.007 118.592 352.247 119.582 352.727 120.442C353.207 121.282 353.847 121.932 354.647 122.392C355.447 122.852 356.357 123.082 357.377 123.082ZM362.807 125.422V121.132L362.987 117.442L362.687 113.752V103.162H365.567V125.422H362.807Z" fill="#646464"/>
<path d="M387.503 125.602C386.143 125.602 384.913 125.302 383.813 124.702C382.733 124.082 381.873 123.172 381.233 121.972C380.613 120.772 380.303 119.272 380.303 117.472C380.303 115.672 380.623 114.172 381.263 112.972C381.923 111.772 382.793 110.872 383.873 110.272C384.973 109.672 386.183 109.372 387.503 109.372C389.063 109.372 390.443 109.712 391.643 110.392C392.843 111.072 393.793 112.022 394.493 113.242C395.193 114.442 395.543 115.852 395.543 117.472C395.543 119.092 395.193 120.512 394.493 121.732C393.793 122.952 392.843 123.902 391.643 124.582C390.443 125.262 389.063 125.602 387.503 125.602ZM379.073 125.422V103.162H381.953V113.752L381.653 117.442L381.833 121.132V125.422H379.073ZM387.263 123.082C388.283 123.082 389.193 122.852 389.993 122.392C390.813 121.932 391.453 121.282 391.913 120.442C392.393 119.582 392.633 118.592 392.633 117.472C392.633 116.332 392.393 115.352 391.913 114.532C391.453 113.692 390.813 113.042 389.993 112.582C389.193 112.122 388.283 111.892 387.263 111.892C386.263 111.892 385.353 112.122 384.533 112.582C383.733 113.042 383.093 113.692 382.613 114.532C382.153 115.352 381.923 116.332 381.923 117.472C381.923 118.592 382.153 119.582 382.613 120.442C383.093 121.282 383.733 121.932 384.533 122.392C385.353 122.852 386.263 123.082 387.263 123.082Z" fill="#646464"/>
<path d="M399.772 131.422C399.012 131.422 398.272 131.292 397.552 131.032C396.832 130.792 396.212 130.432 395.692 129.952L396.922 127.792C397.322 128.172 397.762 128.462 398.242 128.662C398.722 128.862 399.232 128.962 399.772 128.962C400.472 128.962 401.052 128.782 401.512 128.422C401.972 128.062 402.402 127.422 402.802 126.502L403.792 124.312L404.092 123.952L410.332 109.522H413.152L405.442 127.012C404.982 128.132 404.462 129.012 403.882 129.652C403.322 130.292 402.702 130.742 402.022 131.002C401.342 131.282 400.592 131.422 399.772 131.422ZM403.552 125.932L396.292 109.522H399.292L405.472 123.682L403.552 125.932Z" fill="#646464"/>
<path d="M427.047 113.482H437.847V116.032H427.047V113.482ZM427.317 122.812H439.557V125.422H424.317V104.422H439.137V107.032H427.317V122.812Z" fill="#646464"/>
<path d="M452.484 109.372C453.784 109.372 454.924 109.622 455.904 110.122C456.904 110.622 457.684 111.382 458.244 112.402C458.804 113.422 459.084 114.712 459.084 116.272V125.422H456.204V116.602C456.204 115.062 455.824 113.902 455.064 113.122C454.324 112.342 453.274 111.952 451.914 111.952C450.894 111.952 450.004 112.152 449.244 112.552C448.484 112.952 447.894 113.542 447.474 114.322C447.074 115.102 446.874 116.072 446.874 117.232V125.422H443.994V109.522H446.754V113.812L446.304 112.672C446.824 111.632 447.624 110.822 448.704 110.242C449.784 109.662 451.044 109.372 452.484 109.372Z" fill="#646464"/>
<path d="M470.984 125.602C469.444 125.602 468.064 125.262 466.844 124.582C465.644 123.902 464.694 122.952 463.994 121.732C463.294 120.512 462.944 119.092 462.944 117.472C462.944 115.852 463.294 114.442 463.994 113.242C464.694 112.022 465.644 111.072 466.844 110.392C468.064 109.712 469.444 109.372 470.984 109.372C472.324 109.372 473.534 109.672 474.614 110.272C475.694 110.872 476.554 111.772 477.194 112.972C477.854 114.172 478.184 115.672 478.184 117.472C478.184 119.272 477.864 120.772 477.224 121.972C476.604 123.172 475.754 124.082 474.674 124.702C473.594 125.302 472.364 125.602 470.984 125.602ZM471.224 123.082C472.224 123.082 473.124 122.852 473.924 122.392C474.744 121.932 475.384 121.282 475.844 120.442C476.324 119.582 476.564 118.592 476.564 117.472C476.564 116.332 476.324 115.352 475.844 114.532C475.384 113.692 474.744 113.042 473.924 112.582C473.124 112.122 472.224 111.892 471.224 111.892C470.204 111.892 469.294 112.122 468.494 112.582C467.694 113.042 467.054 113.692 466.574 114.532C466.094 115.352 465.854 116.332 465.854 117.472C465.854 118.592 466.094 119.582 466.574 120.442C467.054 121.282 467.694 121.932 468.494 122.392C469.294 122.852 470.204 123.082 471.224 123.082ZM476.654 125.422V121.132L476.834 117.442L476.534 113.752V103.162H479.414V125.422H476.654Z" fill="#646464"/>
<path d="M491.554 125.602C490.194 125.602 488.994 125.352 487.954 124.852C486.934 124.352 486.134 123.592 485.554 122.572C484.994 121.532 484.714 120.232 484.714 118.672V109.522H487.594V118.342C487.594 119.902 487.964 121.072 488.704 121.852C489.464 122.632 490.524 123.022 491.884 123.022C492.884 123.022 493.754 122.822 494.494 122.422C495.234 122.002 495.804 121.402 496.204 120.622C496.604 119.822 496.804 118.862 496.804 117.742V109.522H499.684V125.422H496.954V121.132L497.404 122.272C496.884 123.332 496.104 124.152 495.064 124.732C494.024 125.312 492.854 125.602 491.554 125.602Z" fill="#646464"/>
<path d="M505.166 125.422V109.522H507.926V113.842L507.656 112.762C508.096 111.662 508.836 110.822 509.876 110.242C510.916 109.662 512.196 109.372 513.716 109.372V112.162C513.596 112.142 513.476 112.132 513.356 112.132C513.256 112.132 513.156 112.132 513.056 112.132C511.516 112.132 510.296 112.592 509.396 113.512C508.496 114.432 508.046 115.762 508.046 117.502V125.422H505.166Z" fill="#646464"/>
<path d="M525.964 125.422V122.062L525.814 121.432V115.702C525.814 114.482 525.454 113.542 524.734 112.882C524.034 112.202 522.974 111.862 521.554 111.862C520.614 111.862 519.694 112.022 518.794 112.342C517.894 112.642 517.134 113.052 516.514 113.572L515.314 111.412C516.134 110.752 517.114 110.252 518.254 109.912C519.414 109.552 520.624 109.372 521.884 109.372C524.064 109.372 525.744 109.902 526.924 110.962C528.104 112.022 528.694 113.642 528.694 115.822V125.422H525.964ZM520.744 125.602C519.564 125.602 518.524 125.402 517.624 125.002C516.744 124.602 516.064 124.052 515.584 123.352C515.104 122.632 514.864 121.822 514.864 120.922C514.864 120.062 515.064 119.282 515.464 118.582C515.884 117.882 516.554 117.322 517.474 116.902C518.414 116.482 519.674 116.272 521.254 116.272H526.294V118.342H521.374C519.934 118.342 518.964 118.582 518.464 119.062C517.964 119.542 517.714 120.122 517.714 120.802C517.714 121.582 518.024 122.212 518.644 122.692C519.264 123.152 520.124 123.382 521.224 123.382C522.304 123.382 523.244 123.142 524.044 122.662C524.864 122.182 525.454 121.482 525.814 120.562L526.384 122.542C526.004 123.482 525.334 124.232 524.374 124.792C523.414 125.332 522.204 125.602 520.744 125.602Z" fill="#646464"/>
<path d="M542.514 109.372C543.814 109.372 544.954 109.622 545.934 110.122C546.934 110.622 547.714 111.382 548.274 112.402C548.834 113.422 549.114 114.712 549.114 116.272V125.422H546.234V116.602C546.234 115.062 545.854 113.902 545.094 113.122C544.354 112.342 543.304 111.952 541.944 111.952C540.924 111.952 540.034 112.152 539.274 112.552C538.514 112.952 537.924 113.542 537.504 114.322C537.104 115.102 536.904 116.072 536.904 117.232V125.422H534.024V109.522H536.784V113.812L536.334 112.672C536.854 111.632 537.654 110.822 538.734 110.242C539.814 109.662 541.074 109.372 542.514 109.372Z" fill="#646464"/>
<path d="M561.374 125.602C559.754 125.602 558.304 125.252 557.024 124.552C555.764 123.852 554.774 122.892 554.054 121.672C553.334 120.452 552.974 119.052 552.974 117.472C552.974 115.892 553.334 114.492 554.054 113.272C554.774 112.052 555.764 111.102 557.024 110.422C558.304 109.722 559.754 109.372 561.374 109.372C562.814 109.372 564.094 109.662 565.214 110.242C566.354 110.802 567.234 111.642 567.854 112.762L565.664 114.172C565.144 113.392 564.504 112.822 563.744 112.462C563.004 112.082 562.204 111.892 561.344 111.892C560.304 111.892 559.374 112.122 558.554 112.582C557.734 113.042 557.084 113.692 556.604 114.532C556.124 115.352 555.884 116.332 555.884 117.472C555.884 118.612 556.124 119.602 556.604 120.442C557.084 121.282 557.734 121.932 558.554 122.392C559.374 122.852 560.304 123.082 561.344 123.082C562.204 123.082 563.004 122.902 563.744 122.542C564.504 122.162 565.144 121.582 565.664 120.802L567.854 122.182C567.234 123.282 566.354 124.132 565.214 124.732C564.094 125.312 562.814 125.602 561.374 125.602Z" fill="#646464"/>
<path d="M578.428 125.602C576.728 125.602 575.228 125.252 573.928 124.552C572.648 123.852 571.648 122.892 570.928 121.672C570.228 120.452 569.878 119.052 569.878 117.472C569.878 115.892 570.218 114.492 570.898 113.272C571.598 112.052 572.548 111.102 573.748 110.422C574.968 109.722 576.338 109.372 577.858 109.372C579.398 109.372 580.758 109.712 581.938 110.392C583.118 111.072 584.038 112.032 584.698 113.272C585.378 114.492 585.718 115.922 585.718 117.562C585.718 117.682 585.708 117.822 585.688 117.982C585.688 118.142 585.678 118.292 585.658 118.432H572.128V116.362H584.158L582.988 117.082C583.008 116.062 582.798 115.152 582.358 114.352C581.918 113.552 581.308 112.932 580.528 112.492C579.768 112.032 578.878 111.802 577.858 111.802C576.858 111.802 575.968 112.032 575.188 112.492C574.408 112.932 573.798 113.562 573.358 114.382C572.918 115.182 572.698 116.102 572.698 117.142V117.622C572.698 118.682 572.938 119.632 573.418 120.472C573.918 121.292 574.608 121.932 575.488 122.392C576.368 122.852 577.378 123.082 578.518 123.082C579.458 123.082 580.308 122.922 581.068 122.602C581.848 122.282 582.528 121.802 583.108 121.162L584.698 123.022C583.978 123.862 583.078 124.502 581.998 124.942C580.938 125.382 579.748 125.602 578.428 125.602Z" fill="#646464"/>
<path d="M602.364 125.422V107.032H595.164V104.422H612.534V107.032H605.334V125.422H602.364Z" fill="#646464"/>
<path d="M620.821 125.602C619.121 125.602 617.621 125.252 616.321 124.552C615.041 123.852 614.041 122.892 613.321 121.672C612.621 120.452 612.271 119.052 612.271 117.472C612.271 115.892 612.611 114.492 613.291 113.272C613.991 112.052 614.941 111.102 616.141 110.422C617.361 109.722 618.731 109.372 620.251 109.372C621.791 109.372 623.151 109.712 624.331 110.392C625.511 111.072 626.431 112.032 627.091 113.272C627.771 114.492 628.111 115.922 628.111 117.562C628.111 117.682 628.101 117.822 628.081 117.982C628.081 118.142 628.071 118.292 628.051 118.432H614.521V116.362H626.551L625.381 117.082C625.401 116.062 625.191 115.152 624.751 114.352C624.311 113.552 623.701 112.932 622.921 112.492C622.161 112.032 621.271 111.802 620.251 111.802C619.251 111.802 618.361 112.032 617.581 112.492C616.801 112.932 616.191 113.562 615.751 114.382C615.311 115.182 615.091 116.102 615.091 117.142V117.622C615.091 118.682 615.331 119.632 615.811 120.472C616.311 121.292 617.001 121.932 617.881 122.392C618.761 122.852 619.771 123.082 620.911 123.082C621.851 123.082 622.701 122.922 623.461 122.602C624.241 122.282 624.921 121.802 625.501 121.162L627.091 123.022C626.371 123.862 625.471 124.502 624.391 124.942C623.331 125.382 622.141 125.602 620.821 125.602Z" fill="#646464"/>
<path d="M639.04 125.602C637.42 125.602 635.97 125.252 634.69 124.552C633.43 123.852 632.44 122.892 631.72 121.672C631 120.452 630.64 119.052 630.64 117.472C630.64 115.892 631 114.492 631.72 113.272C632.44 112.052 633.43 111.102 634.69 110.422C635.97 109.722 637.42 109.372 639.04 109.372C640.48 109.372 641.76 109.662 642.88 110.242C644.02 110.802 644.9 111.642 645.52 112.762L643.33 114.172C642.81 113.392 642.17 112.822 641.41 112.462C640.67 112.082 639.87 111.892 639.01 111.892C637.97 111.892 637.04 112.122 636.22 112.582C635.4 113.042 634.75 113.692 634.27 114.532C633.79 115.352 633.55 116.332 633.55 117.472C633.55 118.612 633.79 119.602 634.27 120.442C634.75 121.282 635.4 121.932 636.22 122.392C637.04 122.852 637.97 123.082 639.01 123.082C639.87 123.082 640.67 122.902 641.41 122.542C642.17 122.162 642.81 121.582 643.33 120.802L645.52 122.182C644.9 123.282 644.02 124.132 642.88 124.732C641.76 125.312 640.48 125.602 639.04 125.602Z" fill="#646464"/>
<path d="M657.533 109.372C658.833 109.372 659.973 109.622 660.953 110.122C661.953 110.622 662.733 111.382 663.293 112.402C663.853 113.422 664.133 114.712 664.133 116.272V125.422H661.253V116.602C661.253 115.062 660.873 113.902 660.113 113.122C659.373 112.342 658.323 111.952 656.963 111.952C655.943 111.952 655.053 112.152 654.293 112.552C653.533 112.952 652.943 113.542 652.523 114.322C652.123 115.102 651.923 116.072 651.923 117.232V125.422H649.043V103.162H651.923V113.812L651.353 112.672C651.873 111.632 652.673 110.822 653.753 110.242C654.833 109.662 656.093 109.372 657.533 109.372Z" fill="#646464"/>
<path d="M677.953 109.372C679.253 109.372 680.393 109.622 681.373 110.122C682.373 110.622 683.153 111.382 683.713 112.402C684.273 113.422 684.553 114.712 684.553 116.272V125.422H681.673V116.602C681.673 115.062 681.293 113.902 680.533 113.122C679.793 112.342 678.743 111.952 677.383 111.952C676.363 111.952 675.473 112.152 674.713 112.552C673.953 112.952 673.363 113.542 672.943 114.322C672.543 115.102 672.343 116.072 672.343 117.232V125.422H669.463V109.522H672.223V113.812L671.773 112.672C672.293 111.632 673.093 110.822 674.173 110.242C675.253 109.662 676.513 109.372 677.953 109.372Z" fill="#646464"/>
<path d="M696.693 125.602C695.093 125.602 693.673 125.252 692.433 124.552C691.193 123.852 690.213 122.892 689.493 121.672C688.773 120.432 688.413 119.032 688.413 117.472C688.413 115.892 688.773 114.492 689.493 113.272C690.213 112.052 691.193 111.102 692.433 110.422C693.673 109.722 695.093 109.372 696.693 109.372C698.273 109.372 699.683 109.722 700.923 110.422C702.183 111.102 703.163 112.052 703.863 113.272C704.583 114.472 704.943 115.872 704.943 117.472C704.943 119.052 704.583 120.452 703.863 121.672C703.163 122.892 702.183 123.852 700.923 124.552C699.683 125.252 698.273 125.602 696.693 125.602ZM696.693 123.082C697.713 123.082 698.623 122.852 699.423 122.392C700.243 121.932 700.883 121.282 701.343 120.442C701.803 119.582 702.033 118.592 702.033 117.472C702.033 116.332 701.803 115.352 701.343 114.532C700.883 113.692 700.243 113.042 699.423 112.582C698.623 112.122 697.713 111.892 696.693 111.892C695.673 111.892 694.763 112.122 693.963 112.582C693.163 113.042 692.523 113.692 692.043 114.532C691.563 115.352 691.323 116.332 691.323 117.472C691.323 118.592 691.563 119.582 692.043 120.442C692.523 121.282 693.163 121.932 693.963 122.392C694.763 122.852 695.673 123.082 696.693 123.082Z" fill="#646464"/>
<path d="M708.926 125.422V103.162H711.806V125.422H708.926Z" fill="#646464"/>
<path d="M724.115 125.602C722.515 125.602 721.095 125.252 719.855 124.552C718.615 123.852 717.635 122.892 716.915 121.672C716.195 120.432 715.835 119.032 715.835 117.472C715.835 115.892 716.195 114.492 716.915 113.272C717.635 112.052 718.615 111.102 719.855 110.422C721.095 109.722 722.515 109.372 724.115 109.372C725.695 109.372 727.105 109.722 728.345 110.422C729.605 111.102 730.585 112.052 731.285 113.272C732.005 114.472 732.365 115.872 732.365 117.472C732.365 119.052 732.005 120.452 731.285 121.672C730.585 122.892 729.605 123.852 728.345 124.552C727.105 125.252 725.695 125.602 724.115 125.602ZM724.115 123.082C725.135 123.082 726.045 122.852 726.845 122.392C727.665 121.932 728.305 121.282 728.765 120.442C729.225 119.582 729.455 118.592 729.455 117.472C729.455 116.332 729.225 115.352 728.765 114.532C728.305 113.692 727.665 113.042 726.845 112.582C726.045 112.122 725.135 111.892 724.115 111.892C723.095 111.892 722.185 112.122 721.385 112.582C720.585 113.042 719.945 113.692 719.465 114.532C718.985 115.352 718.745 116.332 718.745 117.472C718.745 118.592 718.985 119.582 719.465 120.442C719.945 121.282 720.585 121.932 721.385 122.392C722.185 122.852 723.095 123.082 724.115 123.082Z" fill="#646464"/>
<path d="M743.308 131.422C741.848 131.422 740.428 131.212 739.048 130.792C737.688 130.392 736.578 129.812 735.718 129.052L737.098 126.832C737.838 127.472 738.748 127.972 739.828 128.332C740.908 128.712 742.038 128.902 743.218 128.902C745.098 128.902 746.478 128.462 747.358 127.582C748.238 126.702 748.678 125.362 748.678 123.562V120.202L748.978 117.052L748.828 113.872V109.522H751.558V123.262C751.558 126.062 750.858 128.122 749.458 129.442C748.058 130.762 746.008 131.422 743.308 131.422ZM742.948 124.762C741.408 124.762 740.028 124.442 738.808 123.802C737.608 123.142 736.648 122.232 735.928 121.072C735.228 119.912 734.878 118.572 734.878 117.052C734.878 115.512 735.228 114.172 735.928 113.032C736.648 111.872 737.608 110.972 738.808 110.332C740.028 109.692 741.408 109.372 742.948 109.372C744.308 109.372 745.548 109.652 746.668 110.212C747.788 110.752 748.678 111.592 749.338 112.732C750.018 113.872 750.358 115.312 750.358 117.052C750.358 118.772 750.018 120.202 749.338 121.342C748.678 122.482 747.788 123.342 746.668 123.922C745.548 124.482 744.308 124.762 742.948 124.762ZM743.278 122.242C744.338 122.242 745.278 122.022 746.098 121.582C746.918 121.142 747.558 120.532 748.018 119.752C748.498 118.972 748.738 118.072 748.738 117.052C748.738 116.032 748.498 115.132 748.018 114.352C747.558 113.572 746.918 112.972 746.098 112.552C745.278 112.112 744.338 111.892 743.278 111.892C742.218 111.892 741.268 112.112 740.428 112.552C739.608 112.972 738.958 113.572 738.478 114.352C738.018 115.132 737.788 116.032 737.788 117.052C737.788 118.072 738.018 118.972 738.478 119.752C738.958 120.532 739.608 121.142 740.428 121.582C741.268 122.022 742.218 122.242 743.278 122.242Z" fill="#646464"/>
<path d="M757.061 125.422V109.522H759.941V125.422H757.061ZM758.501 106.462C757.941 106.462 757.471 106.282 757.091 105.922C756.731 105.562 756.551 105.122 756.551 104.602C756.551 104.062 756.731 103.612 757.091 103.252C757.471 102.892 757.941 102.712 758.501 102.712C759.061 102.712 759.521 102.892 759.881 103.252C760.261 103.592 760.451 104.022 760.451 104.542C760.451 105.082 760.271 105.542 759.911 105.922C759.551 106.282 759.081 106.462 758.501 106.462Z" fill="#646464"/>
<path d="M772.52 125.602C770.82 125.602 769.32 125.252 768.02 124.552C766.74 123.852 765.74 122.892 765.02 121.672C764.32 120.452 763.97 119.052 763.97 117.472C763.97 115.892 764.31 114.492 764.99 113.272C765.69 112.052 766.64 111.102 767.84 110.422C769.06 109.722 770.43 109.372 771.95 109.372C773.49 109.372 774.85 109.712 776.03 110.392C777.21 111.072 778.13 112.032 778.79 113.272C779.47 114.492 779.81 115.922 779.81 117.562C779.81 117.682 779.8 117.822 779.78 117.982C779.78 118.142 779.77 118.292 779.75 118.432H766.22V116.362H778.25L777.08 117.082C777.1 116.062 776.89 115.152 776.45 114.352C776.01 113.552 775.4 112.932 774.62 112.492C773.86 112.032 772.97 111.802 771.95 111.802C770.95 111.802 770.06 112.032 769.28 112.492C768.5 112.932 767.89 113.562 767.45 114.382C767.01 115.182 766.79 116.102 766.79 117.142V117.622C766.79 118.682 767.03 119.632 767.51 120.472C768.01 121.292 768.7 121.932 769.58 122.392C770.46 122.852 771.47 123.082 772.61 123.082C773.55 123.082 774.4 122.922 775.16 122.602C775.94 122.282 776.62 121.802 777.2 121.162L778.79 123.022C778.07 123.862 777.17 124.502 776.09 124.942C775.03 125.382 773.84 125.602 772.52 125.602Z" fill="#646464"/>
<path d="M788.369 125.602C787.049 125.602 785.789 125.422 784.589 125.062C783.409 124.702 782.479 124.262 781.799 123.742L782.999 121.462C783.679 121.922 784.519 122.312 785.519 122.632C786.519 122.952 787.539 123.112 788.579 123.112C789.919 123.112 790.879 122.922 791.459 122.542C792.059 122.162 792.359 121.632 792.359 120.952C792.359 120.452 792.179 120.062 791.819 119.782C791.459 119.502 790.979 119.292 790.379 119.152C789.799 119.012 789.149 118.892 788.429 118.792C787.709 118.672 786.989 118.532 786.269 118.372C785.549 118.192 784.889 117.952 784.289 117.652C783.689 117.332 783.209 116.902 782.849 116.362C782.489 115.802 782.309 115.062 782.309 114.142C782.309 113.182 782.579 112.342 783.119 111.622C783.659 110.902 784.419 110.352 785.399 109.972C786.399 109.572 787.579 109.372 788.939 109.372C789.979 109.372 791.029 109.502 792.089 109.762C793.169 110.002 794.049 110.352 794.729 110.812L793.499 113.092C792.779 112.612 792.029 112.282 791.249 112.102C790.469 111.922 789.689 111.832 788.909 111.832C787.649 111.832 786.709 112.042 786.089 112.462C785.469 112.862 785.159 113.382 785.159 114.022C785.159 114.562 785.339 114.982 785.699 115.282C786.079 115.562 786.559 115.782 787.139 115.942C787.739 116.102 788.399 116.242 789.119 116.362C789.839 116.462 790.559 116.602 791.279 116.782C791.999 116.942 792.649 117.172 793.229 117.472C793.829 117.772 794.309 118.192 794.669 118.732C795.049 119.272 795.239 119.992 795.239 120.892C795.239 121.852 794.959 122.682 794.399 123.382C793.839 124.082 793.049 124.632 792.029 125.032C791.009 125.412 789.789 125.602 788.369 125.602Z" fill="#646464"/>
<defs>
<linearGradient id="paint0_linear_115_9" x1="16.8" y1="12" x2="160.8" y2="120.8" gradientUnits="userSpaceOnUse">
<stop stop-color="#2348B4"/>
<stop offset="1" stop-color="#0F153B"/>
</linearGradient>
</defs>
</svg>
