<svg width="313" height="224" viewBox="0 0 313 224" fill="none" xmlns="http://www.w3.org/2000/svg">
<path d="M305 0C309.418 0 313 3.58172 313 8V216C313 220.418 309.418 224 305 224H8C3.58173 224 0 220.418 0 216V8C0 3.58172 3.58172 0 8 0H305Z" fill="#F3F4F6"/>
<path d="M291 16C294.314 16 297 18.6863 297 22V202C297 205.314 294.314 208 291 208H22C18.6863 208 16 205.314 16 202V22C16 18.6863 18.6863 16 22 16H291Z" fill="white"/>
<path d="M98.5 49H214.5C217.261 49 219.5 51.2386 219.5 54V170C219.5 172.761 217.261 175 214.5 175H98.5C95.7386 175 93.5 172.761 93.5 170V54C93.5 51.2386 95.7386 49 98.5 49Z" stroke="#D1D5DB" stroke-width="2"/>
<g clip-path="url(#clip0_7_1610)">
<g clip-path="url(#clip1_7_1610)">
<path d="M140.75 99.125C140.75 97.2617 142.262 95.75 144.125 95.75H150.875C152.738 95.75 154.25 97.2617 154.25 99.125V105.875C154.25 107.738 152.738 109.25 150.875 109.25H144.125C142.262 109.25 140.75 107.738 140.75 105.875V99.125ZM145.25 100.25V104.75H149.75V100.25H145.25ZM140.75 117.125C140.75 115.262 142.262 113.75 144.125 113.75H150.875C152.738 113.75 154.25 115.262 154.25 117.125V123.875C154.25 125.738 152.738 127.25 150.875 127.25H144.125C142.262 127.25 140.75 125.738 140.75 123.875V117.125ZM145.25 118.25V122.75H149.75V118.25H145.25ZM162.125 95.75H168.875C170.738 95.75 172.25 97.2617 172.25 99.125V105.875C172.25 107.738 170.738 109.25 168.875 109.25H162.125C160.262 109.25 158.75 107.738 158.75 105.875V99.125C158.75 97.2617 160.262 95.75 162.125 95.75ZM167.75 100.25H163.25V104.75H167.75V100.25ZM158.75 114.875C158.75 114.256 159.256 113.75 159.875 113.75H164.375C164.994 113.75 165.5 114.256 165.5 114.875C165.5 115.494 166.006 116 166.625 116H168.875C169.494 116 170 115.494 170 114.875C170 114.256 170.506 113.75 171.125 113.75C171.744 113.75 172.25 114.256 172.25 114.875V121.625C172.25 122.244 171.744 122.75 171.125 122.75H166.625C166.006 122.75 165.5 122.244 165.5 121.625C165.5 121.006 164.994 120.5 164.375 120.5C163.756 120.5 163.25 121.006 163.25 121.625V126.125C163.25 126.744 162.744 127.25 162.125 127.25H159.875C159.256 127.25 158.75 126.744 158.75 126.125V114.875ZM166.625 127.25C166.327 127.25 166.04 127.131 165.83 126.92C165.619 126.71 165.5 126.423 165.5 126.125C165.5 125.827 165.619 125.54 165.83 125.33C166.04 125.119 166.327 125 166.625 125C166.923 125 167.21 125.119 167.42 125.33C167.631 125.54 167.75 125.827 167.75 126.125C167.75 126.423 167.631 126.71 167.42 126.92C167.21 127.131 166.923 127.25 166.625 127.25ZM171.125 127.25C170.827 127.25 170.54 127.131 170.33 126.92C170.119 126.71 170 126.423 170 126.125C170 125.827 170.119 125.54 170.33 125.33C170.54 125.119 170.827 125 171.125 125C171.423 125 171.71 125.119 171.92 125.33C172.131 125.54 172.25 125.827 172.25 126.125C172.25 126.423 172.131 126.71 171.92 126.92C171.71 127.131 171.423 127.25 171.125 127.25Z" fill="#9CA3AF"/>
</g>
</g>
<defs>
<clipPath id="clip0_7_1610">
<rect width="31.5" height="36" fill="white" transform="translate(140.75 93.5)"/>
</clipPath>
<clipPath id="clip1_7_1610">
<path d="M140.75 93.5H172.25V129.5H140.75V93.5Z" fill="white"/>
</clipPath>
</defs>
</svg>
