<svg width="97" height="96" viewBox="0 0 97 96" fill="none" xmlns="http://www.w3.org/2000/svg">
<path d="M48.5 0C75.0097 0 96.5 21.4903 96.5 48C96.5 74.5097 75.0097 96 48.5 96C21.9903 96 0.5 74.5097 0.5 48C0.5 21.4903 21.9903 0 48.5 0Z" fill="#FFD3FE"/>
<path d="M48.5 0C75.0097 0 96.5 21.4903 96.5 48C96.5 74.5097 75.0097 96 48.5 96C21.9903 96 0.5 74.5097 0.5 48C0.5 21.4903 21.9903 0 48.5 0Z" stroke="#E5E7EB"/>
<g clip-path="url(#clip0_7_1656)">
<path d="M48.5 65.5C53.2739 65.5 57.8523 63.6036 61.2279 60.2279C64.6036 56.8523 66.5 52.2739 66.5 47.5C66.5 42.7261 64.6036 38.1477 61.2279 34.7721C57.8523 31.3964 53.2739 29.5 48.5 29.5C43.7261 29.5 39.1477 31.3964 35.7721 34.7721C32.3964 38.1477 30.5 42.7261 30.5 47.5C30.5 52.2739 32.3964 56.8523 35.7721 60.2279C39.1477 63.6036 43.7261 65.5 48.5 65.5ZM56.4453 44.1953L47.4453 53.1953C46.7844 53.8563 45.7156 53.8563 45.0617 53.1953L40.5617 48.6953C39.9008 48.0344 39.9008 46.9656 40.5617 46.3117C41.2227 45.6578 42.2914 45.6508 42.9453 46.3117L46.25 49.6164L54.0547 41.8047C54.7156 41.1438 55.7844 41.1438 56.4383 41.8047C57.0922 42.4656 57.0992 43.5344 56.4383 44.1883L56.4453 44.1953Z" fill="#8F008C"/>
</g>
<defs>
<clipPath id="clip0_7_1656">
<path d="M30.5 29.5H66.5V65.5H30.5V29.5Z" fill="white"/>
</clipPath>
</defs>
</svg>
