<svg xmlns="http://www.w3.org/2000/svg" xmlns:xlink="http://www.w3.org/1999/xlink" width="1080" zoomAndPan="magnify" viewBox="0 0 810 809.999993" height="1080" preserveAspectRatio="xMidYMid meet" version="1.2"><defs><filter x="0%" y="0%" width="100%" filterUnits="objectBoundingBox" id="d05d049b89" height="100%"><feColorMatrix values="0 0 0 0 1 0 0 0 0 1 0 0 0 0 1 0 0 0 1 0" type="matrix" in="SourceGraphic"/></filter><clipPath id="e5397e7863"><path d="M 3 13 L 778 13 L 778 793 L 3 793 Z M 3 13 "/></clipPath><clipPath id="904fc2545a"><path d="M 453.746094 981.628906 L -60.613281 325.125 L 497.886719 -112.445312 L 1012.242188 544.054688 Z M 453.746094 981.628906 "/></clipPath><clipPath id="573c91ac98"><path d="M 453.746094 981.628906 L -60.613281 325.125 L 497.886719 -112.445312 L 1012.242188 544.054688 Z M 453.746094 981.628906 "/></clipPath><clipPath id="67588d7534"><rect x="0" width="810" y="0" height="810"/></clipPath></defs><g id="baf4a2b229"><g mask="url(#90dceb3590)" transform="matrix(1,0,0,1,0,0.000000000000039746)"><g clip-path="url(#67588d7534)"><g clip-rule="nonzero" clip-path="url(#e5397e7863)"><g clip-rule="nonzero" clip-path="url(#904fc2545a)"><g clip-rule="nonzero" clip-path="url(#573c91ac98)"><path style=" stroke:none;fill-rule:nonzero;fill:#8a00d4;fill-opacity:1;" d="M 407.585938 775.101562 C 360.390625 799.417969 321.652344 784.128906 294.601562 763.824219 C 267.550781 743.519531 251.910156 702.421875 258.160156 655.996094 C 261.359375 632.238281 256.339844 607.996094 252.019531 584.414062 C 246.886719 556.386719 231.402344 530.375 209.207031 512.5 C 188.984375 496.210938 164.175781 486.960938 140.195312 477.007812 C 99.332031 460.050781 58.207031 439.226562 30.789062 404.5 C 3.375 369.773438 -6.636719 317.839844 17.949219 281.054688 C 42.464844 244.378906 91.84375 233.765625 135.9375 235.023438 C 152.320312 235.492188 168.789062 237.152344 185.046875 235.070312 C 220.253906 230.558594 252.515625 207.359375 267.992188 175.417969 C 290.335938 129.316406 280.414062 67.105469 318.34375 32.667969 C 340.515625 12.539062 374.679688 8.792969 402.675781 19.421875 C 430.667969 30.054688 452.625 53.316406 466.328125 79.941406 C 477.824219 102.273438 484.066406 127.015625 495.550781 149.355469 C 507.035156 171.695312 525.746094 192.546875 550.472656 196.976562 C 578.050781 201.914062 604.4375 185.589844 631.675781 179.035156 C 663.777344 171.3125 699.03125 177.824219 726.253906 196.511719 C 753.472656 215.195312 772.226562 245.753906 776.558594 278.484375 C 788.402344 367.972656 698.539062 447.265625 709.589844 536.855469 C 714.90625 579.972656 743.289062 617.667969 748.402344 660.804688 C 755.398438 719.835938 710.640625 780.363281 652.148438 790.960938 C 611.09375 798.402344 569.714844 783.878906 529.476562 772.847656 C 489.234375 761.816406 443.984375 754.703125 407.585938 775.101562 "/></g></g></g></g><mask id="90dceb3590"><g filter="url(#d05d049b89)"><rect x="0" width="810" y="0" height="809.999993" style="fill:#000000;fill-opacity:0.2;stroke:none;"/></g></mask></g></g></svg>