<svg width="97" height="96" viewBox="0 0 97 96" fill="none" xmlns="http://www.w3.org/2000/svg">
<path d="M48.5 0C75.0097 0 96.5 21.4903 96.5 48C96.5 74.5097 75.0097 96 48.5 96C21.9903 96 0.5 74.5097 0.5 48C0.5 21.4903 21.9903 0 48.5 0Z" fill="#FFD3FE"/>
<path d="M48.5 0C75.0097 0 96.5 21.4903 96.5 48C96.5 74.5097 75.0097 96 48.5 96C21.9903 96 0.5 74.5097 0.5 48C0.5 21.4903 21.9903 0 48.5 0Z" stroke="#E5E7EB"/>
<g clip-path="url(#clip0_7_1603)">
<path d="M59.532 36.3273C56.5859 33.3742 52.6625 31.75 48.493 31.75C39.8867 31.75 32.8836 38.7531 32.8836 47.3594C32.8836 50.1086 33.6008 52.7945 34.9648 55.1641L32.75 63.25L41.0258 61.0773C43.3039 62.3219 45.8703 62.9758 48.4859 62.9758H48.493C57.0922 62.9758 64.25 55.9727 64.25 47.3664C64.25 43.1969 62.4781 39.2805 59.532 36.3273ZM48.493 60.3461C46.1586 60.3461 43.8734 59.7203 41.8836 58.5391L41.4125 58.2578L36.5047 59.5445L37.8125 54.7563L37.5031 54.2641C36.2023 52.1969 35.5203 49.8133 35.5203 47.3594C35.5203 40.2086 41.3422 34.3867 48.5 34.3867C51.9664 34.3867 55.2219 35.7367 57.6687 38.1906C60.1156 40.6445 61.6203 43.9 61.6133 47.3664C61.6133 54.5242 55.6437 60.3461 48.493 60.3461ZM55.6086 50.6289C55.2219 50.432 53.3023 49.4898 52.9438 49.3633C52.5852 49.2297 52.325 49.1664 52.0648 49.5602C51.8047 49.9539 51.0594 50.8258 50.8273 51.093C50.6023 51.3531 50.3703 51.3883 49.9836 51.1914C47.6914 50.0453 46.1867 49.1453 44.675 46.5508C44.2742 45.8617 45.0758 45.9109 45.8211 44.4203C45.9477 44.1602 45.8844 43.9352 45.7859 43.7383C45.6875 43.5414 44.907 41.6219 44.5836 40.8414C44.2672 40.082 43.9438 40.1875 43.7047 40.1734C43.4797 40.1594 43.2195 40.1594 42.9594 40.1594C42.6992 40.1594 42.2773 40.2578 41.9187 40.6445C41.5602 41.0383 40.5547 41.9805 40.5547 43.9C40.5547 45.8195 41.9539 47.6758 42.1438 47.9359C42.3406 48.1961 44.893 52.1336 48.8094 53.8281C51.2844 54.8969 52.2547 54.9883 53.4922 54.8055C54.2445 54.693 55.7984 53.8633 56.1219 52.9492C56.4453 52.0352 56.4453 51.2547 56.3469 51.093C56.2555 50.9172 55.9953 50.8188 55.6086 50.6289Z" fill="#8F008C"/>
</g>
<defs>
<clipPath id="clip0_7_1603">
<path d="M32.75 29.5H64.25V65.5H32.75V29.5Z" fill="white"/>
</clipPath>
</defs>
</svg>
